<svg width="14" height="11" viewBox="0 0 14 11" fill="none" xmlns="http://www.w3.org/2000/svg">
<path d="M11.8515 0.870862C10.959 0.468374 10.0024 0.170883 9.00202 0.00172088C8.99311 1.05474e-05 8.98389 0.00111275 8.97563 0.00487507C8.96738 0.00863739 8.96049 0.0148737 8.95594 0.0227203C8.83344 0.237964 8.69695 0.518539 8.60128 0.7402C7.54028 0.581676 6.46162 0.581676 5.40062 0.7402C5.29407 0.494542 5.17392 0.255011 5.04072 0.0227203C5.0362 0.0147771 5.02937 0.00839971 5.02114 0.00443921C5.01291 0.000478707 5.00366 -0.000876617 4.99464 0.000554193C3.99483 0.169716 3.03819 0.467207 2.14513 0.870279C2.13745 0.873502 2.13094 0.878997 2.12647 0.886029C0.311188 3.5547 -0.186381 6.15746 0.0580287 8.72755C0.0587088 8.73385 0.0606627 8.73994 0.0637714 8.74545C0.0668801 8.75097 0.0710787 8.75579 0.0761115 8.75963C1.13564 9.53103 2.31741 10.1187 3.57193 10.4979C3.58067 10.5006 3.59003 10.5006 3.59877 10.4979C3.60751 10.4952 3.61523 10.4899 3.62093 10.4828C3.89088 10.1217 4.1301 9.7387 4.33607 9.3377C4.33893 9.33222 4.34058 9.32619 4.3409 9.32001C4.34123 9.31384 4.34022 9.30766 4.33795 9.30191C4.33569 9.29616 4.33221 9.29096 4.32776 9.28667C4.32331 9.28238 4.31799 9.27909 4.31216 9.27704C3.93534 9.13513 3.57023 8.96389 3.22019 8.76488C3.2139 8.76129 3.2086 8.7562 3.20476 8.75005C3.20093 8.74391 3.19868 8.73691 3.19822 8.72968C3.19775 8.72246 3.19909 8.71523 3.20211 8.70864C3.20513 8.70206 3.20974 8.69633 3.21552 8.69197C3.28902 8.63772 3.36252 8.58114 3.43251 8.52456C3.43882 8.51947 3.4464 8.51623 3.45444 8.5152C3.46247 8.51417 3.47063 8.51539 3.47801 8.51872C5.7687 9.5477 8.24954 9.5477 10.5134 8.51872C10.5208 8.51519 10.529 8.51381 10.5372 8.51474C10.5453 8.51567 10.5531 8.51887 10.5595 8.52397C10.6295 8.58114 10.7024 8.63772 10.7765 8.69197C10.7823 8.69624 10.787 8.70189 10.7901 8.70842C10.7932 8.71495 10.7947 8.72214 10.7943 8.72937C10.794 8.73659 10.7918 8.74362 10.7881 8.74981C10.7844 8.75601 10.7792 8.76119 10.773 8.76488C10.4241 8.96554 10.0613 9.13529 9.68042 9.27645C9.67457 9.27858 9.66924 9.28192 9.66479 9.28627C9.66033 9.29062 9.65686 9.29587 9.65459 9.30166C9.65233 9.30746 9.65133 9.31367 9.65166 9.31989C9.65199 9.3261 9.65364 9.33218 9.6565 9.3377C9.8665 9.73844 10.1068 10.1199 10.3711 10.4822C10.3766 10.4896 10.3842 10.4952 10.393 10.4981C10.4017 10.501 10.4112 10.5012 10.4201 10.4985C11.6767 10.1203 12.8604 9.5324 13.9211 8.75963C13.9263 8.75602 13.9306 8.75133 13.9339 8.7459C13.9371 8.74047 13.9391 8.73441 13.9398 8.72814C14.2315 5.75672 13.451 3.17496 11.8696 0.887195C11.8657 0.879761 11.8593 0.873965 11.8515 0.870862ZM4.67848 7.16251C3.989 7.16251 3.42026 6.53895 3.42026 5.77422C3.42026 5.00891 3.97792 4.38593 4.67848 4.38593C5.38429 4.38593 5.94778 5.01416 5.93669 5.77422C5.93669 6.53953 5.37904 7.16251 4.67848 7.16251ZM9.33043 7.16251C8.64036 7.16251 8.07221 6.53895 8.07221 5.77422C8.07221 5.00891 8.62928 4.38593 9.33043 4.38593C10.0362 4.38593 10.5997 5.01416 10.5886 5.77422C10.5886 6.53953 10.0368 7.16251 9.33043 7.16251Z" fill="white" fill-opacity="0.66"/>
</svg>
