<svg width="12" height="12" viewBox="0 0 12 12" fill="none" xmlns="http://www.w3.org/2000/svg">
<path d="M5.99839 3.99907C4.89666 3.99907 3.99757 4.89816 3.99757 5.99989C3.99757 7.10161 4.89666 8.0007 5.99839 8.0007C7.10011 8.0007 7.9992 7.10161 7.9992 5.99989C7.9992 4.89816 7.10011 3.99907 5.99839 3.99907ZM11.9993 5.99989C11.9993 5.17134 12.0068 4.3503 11.9603 3.52326C11.9138 2.56263 11.6946 1.71007 10.9922 1.00761C10.2882 0.303646 9.43715 0.0860026 8.47652 0.0394721C7.64797 -0.00705849 6.82693 0.00044646 5.99989 0.00044646C5.17134 0.00044646 4.3503 -0.00705849 3.52326 0.0394721C2.56263 0.0860026 1.71007 0.305147 1.00761 1.00761C0.303646 1.71157 0.0860026 2.56263 0.0394721 3.52326C-0.00705849 4.35181 0.00044646 5.17284 0.00044646 5.99989C0.00044646 6.82693 -0.00705849 7.64947 0.0394721 8.47652C0.0860026 9.43715 0.305147 10.2897 1.00761 10.9922C1.71157 11.6961 2.56263 11.9138 3.52326 11.9603C4.35181 12.0068 5.17284 11.9993 5.99989 11.9993C6.82843 11.9993 7.64947 12.0068 8.47652 11.9603C9.43715 11.9138 10.2897 11.6946 10.9922 10.9922C11.6961 10.2882 11.9138 9.43715 11.9603 8.47652C12.0083 7.64947 11.9993 6.82843 11.9993 5.99989ZM5.99839 9.07841C4.29477 9.07841 2.91986 7.70351 2.91986 5.99989C2.91986 4.29627 4.29477 2.92137 5.99839 2.92137C7.70201 2.92137 9.07691 4.29627 9.07691 5.99989C9.07691 7.70351 7.70201 9.07841 5.99839 9.07841ZM9.20299 3.51426C8.80523 3.51426 8.48402 3.19304 8.48402 2.79528C8.48402 2.39752 8.80523 2.07631 9.20299 2.07631C9.60075 2.07631 9.92197 2.39752 9.92197 2.79528C9.92208 2.88973 9.90357 2.98328 9.86748 3.07056C9.83139 3.15785 9.77843 3.23715 9.71165 3.30394C9.64486 3.37072 9.56556 3.42368 9.47827 3.45977C9.39099 3.49586 9.29744 3.51437 9.20299 3.51426Z" fill="white" fill-opacity="0.66"/>
</svg>
