<svg width="14" height="12" viewBox="0 0 14 12" fill="none" xmlns="http://www.w3.org/2000/svg">
<path d="M14 1.35105C13.4852 1.57314 12.9249 1.73297 12.3478 1.79522C12.9469 1.43927 13.3956 0.87692 13.6097 0.213683C13.0474 0.548144 12.4315 0.782674 11.7892 0.906869C11.5208 0.619881 11.1961 0.391253 10.8354 0.235232C10.4747 0.0792103 10.0858 -0.000861071 9.69283 6.98301e-06C8.10287 6.98301e-06 6.82418 1.28879 6.82418 2.87034C6.82418 3.09242 6.8511 3.31451 6.89484 3.52819C4.51412 3.40369 2.39082 2.26632 0.979209 0.524944C0.721999 0.964268 0.587212 1.46449 0.588871 1.97357C0.588871 2.9696 1.0953 3.84786 1.86756 4.36439C1.41246 4.34646 0.968008 4.22137 0.570364 3.99929V4.03462C0.570364 5.4294 1.5563 6.58527 2.87033 6.85111C2.62361 6.91519 2.3698 6.94798 2.11489 6.94869C1.92813 6.94869 1.75147 6.93019 1.57313 6.90495C1.93655 8.04231 2.99483 8.86841 4.25502 8.89533C3.26908 9.6676 2.03413 10.1219 0.693186 10.1219C0.45259 10.1219 0.230501 10.1135 0 10.0865C1.27196 10.9025 2.78116 11.3736 4.40644 11.3736C9.68273 11.3736 12.5699 7.00253 12.5699 3.20852C12.5699 3.08401 12.5699 2.95951 12.5615 2.835C13.1201 2.42616 13.6097 1.91973 14 1.35105Z" fill="white" fill-opacity="0.66"/>
</svg>
