<svg width="30" height="30" viewBox="0 0 30 30" fill="none" xmlns="http://www.w3.org/2000/svg">
<path d="M0 8C0 3.58172 3.58172 0 8 0H22C26.4183 0 30 3.58172 30 8V22C30 26.4183 26.4183 30 22 30H8C3.58172 30 0 26.4183 0 22V8Z" fill="white" fill-opacity="0.06"/>
<path d="M14.798 8.75757L15.5426 8.66768V8.66768L14.798 8.75757ZM15.4973 14.5501L14.7527 14.64C14.7813 14.8768 14.9208 15.0858 15.1285 15.2031C15.3362 15.3204 15.5873 15.3319 15.8048 15.2342L15.4973 14.5501ZM16.7965 13.9662L17.1039 14.6503L16.7965 13.9662ZM18.7869 14.0055L19.1309 13.339V13.339L18.7869 14.0055ZM20.782 15.0351L20.438 15.7016L20.782 15.0351ZM21.9978 17.1831L21.2485 17.1514V17.1514L21.9978 17.1831ZM21.8285 21.1898L22.5778 21.2215L21.8285 21.1898ZM19.3902 23.5723L19.388 24.3223L19.3902 23.5723ZM14.0076 23.557L14.0098 22.807H14.0098L14.0076 23.557ZM12.2484 22.6923L11.6545 23.1503L11.6545 23.1503L12.2484 22.6923ZM9.16329 18.6919L9.75719 18.2339L9.16329 18.6919ZM10.0125 17.4137L10.2097 16.6901L10.0125 17.4137ZM12.9904 18.2251L12.7932 18.9487C13.025 19.0119 13.273 18.9602 13.4602 18.8098C13.6474 18.6593 13.7513 18.4282 13.7395 18.1883L12.9904 18.2251ZM12.5397 9.04933L13.2888 9.01253L12.5397 9.04933ZM13.7213 7.78663L13.7234 7.03663L13.7213 7.78663ZM14.0534 8.84747L14.7527 14.64L16.2419 14.4602L15.5426 8.66768L14.0534 8.84747ZM15.8048 15.2342L17.1039 14.6503L16.489 13.2821L15.1899 13.866L15.8048 15.2342ZM18.443 14.6719L20.438 15.7016L21.1259 14.3687L19.1309 13.339L18.443 14.6719ZM21.2485 17.1514L21.0791 21.1581L22.5778 21.2215L22.7471 17.2148L21.2485 17.1514ZM19.3923 22.8223L14.0098 22.807L14.0055 24.307L19.388 24.3223L19.3923 22.8223ZM12.8423 22.2343L9.75719 18.2339L8.56939 19.1499L11.6545 23.1503L12.8423 22.2343ZM9.81537 18.1373L12.7932 18.9487L13.1876 17.5015L10.2097 16.6901L9.81537 18.1373ZM13.7395 18.1883L13.2888 9.01253L11.7906 9.08612L12.2413 18.2619L13.7395 18.1883ZM9.75719 18.2339C9.75386 18.2296 9.75215 18.2266 9.75136 18.2251C9.75056 18.2236 9.75032 18.2229 9.75028 18.2228C9.75024 18.2227 9.7502 18.2225 9.75015 18.2222C9.7501 18.2219 9.74999 18.221 9.75 18.2194C9.75007 18.2119 9.7533 18.1928 9.76831 18.1702C9.78334 18.1476 9.79916 18.138 9.80441 18.1358C9.80622 18.135 9.80608 18.1353 9.80492 18.1354C9.80336 18.1355 9.80623 18.1348 9.81537 18.1373L10.2097 16.6901C8.78041 16.3006 7.67706 17.9929 8.56939 19.1499L9.75719 18.2339ZM14.0098 22.807C13.5462 22.8057 13.1208 22.5954 12.8423 22.2343L11.6545 23.1503C12.2181 23.8811 13.0817 24.3044 14.0055 24.307L14.0098 22.807ZM20.438 15.7016C20.9498 15.9658 21.2752 16.5192 21.2485 17.1514L22.7471 17.2148C22.7974 16.0252 22.1797 14.9125 21.1259 14.3687L20.438 15.7016ZM17.1039 14.6503C17.5509 14.4494 18.0407 14.4643 18.443 14.6719L19.1309 13.339C18.3081 12.9143 17.3381 12.9005 16.489 13.2821L17.1039 14.6503ZM13.7192 8.53662C13.885 8.53709 14.0302 8.65528 14.0534 8.84747L15.5426 8.66768C15.4309 7.74242 14.6653 7.0393 13.7234 7.03663L13.7192 8.53662ZM21.0791 21.1581C21.0397 22.0906 20.2653 22.8248 19.3923 22.8223L19.388 24.3223C21.0968 24.3272 22.5057 22.928 22.5778 21.2215L21.0791 21.1581ZM13.7234 7.03663C12.612 7.03348 11.7368 7.99235 11.7906 9.08612L13.2888 9.01253C13.2757 8.74748 13.4958 8.53599 13.7192 8.53662L13.7234 7.03663Z" fill="#5E6AD2"/>
<path d="M10.392 10.5139C10.0962 9.98075 9.92773 9.36719 9.92773 8.71429C9.92773 6.66294 11.5907 5 13.642 5C15.6934 5 17.3563 6.66294 17.3563 8.71429C17.3563 9.36719 17.1878 9.98075 16.892 10.5139" stroke="#5E6AD2" stroke-width="1.5" stroke-linecap="round"/>
</svg>
