<svg width="30" height="30" viewBox="0 0 30 30" fill="none" xmlns="http://www.w3.org/2000/svg">
<path d="M0 8C0 3.58172 3.58172 0 8 0H22C26.4183 0 30 3.58172 30 8V22C30 26.4183 26.4183 30 22 30H8C3.58172 30 0 26.4183 0 22V8Z" fill="white" fill-opacity="0.06"/>
<path d="M15.0007 23.9582C13.509 23.9582 12.2923 22.7415 12.2923 21.2498V20.6248H8.75065C8.13398 20.6248 7.55898 20.3832 7.12565 19.9415C6.70065 19.5248 6.45898 18.9498 6.45898 18.3332C6.45898 17.1665 7.36732 16.1665 8.53398 16.0498C8.57565 16.0415 8.65898 16.0415 8.75065 16.0415H21.2507C21.3423 16.0415 21.4257 16.0415 21.509 16.0582C22.0007 16.0998 22.4923 16.3332 22.8757 16.7248C23.3507 17.1832 23.5923 17.8498 23.534 18.5332C23.434 19.7082 22.3923 20.6248 21.159 20.6248H17.709V21.2498C17.709 22.7415 16.4923 23.9582 15.0007 23.9582ZM8.75065 17.2915C8.73398 17.2915 8.66732 17.2915 8.65065 17.2998C8.12565 17.3498 7.70898 17.8082 7.70898 18.3332C7.70898 18.6082 7.81732 18.8665 8.00898 19.0582C8.20898 19.2665 8.46732 19.3748 8.75065 19.3748H12.9173C13.259 19.3748 13.5423 19.6582 13.5423 19.9998V21.2498C13.5423 22.0498 14.2007 22.7082 15.0007 22.7082C15.8007 22.7082 16.459 22.0498 16.459 21.2498V19.9998C16.459 19.6582 16.7423 19.3748 17.084 19.3748H21.159C21.734 19.3748 22.2423 18.9498 22.2923 18.4248C22.3173 18.1082 22.209 17.8165 21.9923 17.5998C21.809 17.4165 21.5923 17.3082 21.359 17.2915L21.2507 17.2832H8.75065V17.2915Z" fill="url(#paint0_linear_216_15173)"/>
<path d="M21.4087 17.2998C21.3754 17.2998 21.342 17.2998 21.3087 17.2915H8.75036C8.57536 17.3248 8.36703 17.2748 8.23369 17.1582C8.09203 17.0498 7.98369 16.8832 7.97536 16.7082L7.56703 9.44984C7.48369 8.59984 7.76703 7.72484 8.35869 7.0665C8.95036 6.4165 9.79203 6.0415 10.6754 6.0415H19.3254C20.2087 6.0415 21.0504 6.4165 21.642 7.07484C22.2254 7.72484 22.517 8.59984 22.4337 9.4665L22.0337 16.7082C22.0254 16.8832 21.942 17.0498 21.8004 17.1582C21.692 17.2498 21.5504 17.2998 21.4087 17.2998ZM9.18369 16.0415H20.817L21.1837 9.38317C21.1837 9.37484 21.1837 9.3665 21.1837 9.34984C21.2337 8.8165 21.067 8.29984 20.7087 7.90817C20.3504 7.5165 19.8504 7.2915 19.317 7.2915H10.6754C10.1504 7.2915 9.64203 7.5165 9.28369 7.90817C8.92536 8.30817 8.75869 8.8165 8.81703 9.34984L9.18369 16.0415Z" fill="url(#paint1_linear_216_15173)"/>
<path d="M11.6582 11.4582C11.3165 11.4582 11.0332 11.1748 11.0332 10.8332V6.6665C11.0332 6.32484 11.3165 6.0415 11.6582 6.0415C11.9999 6.0415 12.2832 6.32484 12.2832 6.6665V10.8332C12.2832 11.1748 11.9999 11.4582 11.6582 11.4582Z" fill="url(#paint2_linear_216_15173)"/>
<path d="M15 8.95817C14.6583 8.95817 14.375 8.67484 14.375 8.33317V6.6665C14.375 6.32484 14.6583 6.0415 15 6.0415C15.3417 6.0415 15.625 6.32484 15.625 6.6665V8.33317C15.625 8.67484 15.3417 8.95817 15 8.95817Z" fill="url(#paint3_linear_216_15173)"/>
<defs>
<linearGradient id="paint0_linear_216_15173" x1="9.97619" y1="16.0415" x2="19.9811" y2="17.3371" gradientUnits="userSpaceOnUse">
<stop stop-color="#5DA0EF"/>
<stop offset="0.791667" stop-color="#7A64FF"/>
</linearGradient>
<linearGradient id="paint1_linear_216_15173" x1="10.6193" y1="6.0415" x2="19.4333" y2="6.74115" gradientUnits="userSpaceOnUse">
<stop stop-color="#5DA0EF"/>
<stop offset="0.791667" stop-color="#7A64FF"/>
</linearGradient>
<linearGradient id="paint2_linear_216_15173" x1="11.2906" y1="6.0415" x2="12.0347" y2="6.05181" gradientUnits="userSpaceOnUse">
<stop stop-color="#5DA0EF"/>
<stop offset="0.791667" stop-color="#7A64FF"/>
</linearGradient>
<linearGradient id="paint3_linear_216_15173" x1="14.6324" y1="6.0415" x2="15.3762" y2="6.06063" gradientUnits="userSpaceOnUse">
<stop stop-color="#5DA0EF"/>
<stop offset="0.791667" stop-color="#7A64FF"/>
</linearGradient>
</defs>
</svg>
