<svg width="64" height="65" viewBox="0 0 64 65" fill="none" xmlns="http://www.w3.org/2000/svg">
<path d="M0 16.5C0 7.66344 7.16344 0.5 16 0.5H48C56.8366 0.5 64 7.66344 64 16.5V48.5C64 57.3366 56.8366 64.5 48 64.5H16C7.16344 64.5 0 57.3366 0 48.5V16.5Z" fill="white" fill-opacity="0.15"/>
<path d="M28.4569 20.8001C28.4717 20.3722 28.8553 20.0181 29.2686 20.0033C29.7407 19.959 30.1834 20.3722 30.1834 20.8444C30.2128 21.6264 30.1834 22.3938 30.1982 23.1758H34.7873C34.8021 22.3789 34.7725 21.5969 34.8021 20.8001C34.8169 20.3722 35.2005 20.0181 35.6138 20.0033C36.0859 19.959 36.5286 20.3722 36.5286 20.8444C36.558 21.6264 36.5286 22.3938 36.5434 23.1758C37.5321 23.22 38.5355 23.0872 39.5094 23.2495C40.7489 23.5151 41.7376 24.6512 41.8113 25.9204C41.8408 26.7615 41.8113 27.6026 41.8261 28.4437C42.6082 28.4585 43.3904 28.4289 44.1724 28.4585C44.6151 28.4585 45.0135 28.8864 44.9986 29.3291C44.9986 29.7717 44.6297 30.185 44.187 30.185C43.405 30.2144 42.6082 30.185 41.8259 30.1998V33.7413C42.6079 33.7561 43.3902 33.7265 44.1722 33.7561C44.6297 33.7709 45.0281 34.1988 44.9984 34.6415C44.9984 35.0842 44.6148 35.4826 44.1722 35.4826C43.3902 35.512 42.6079 35.4826 41.8259 35.4974C41.8111 36.6926 41.8408 37.8879 41.8111 39.0831C41.7374 40.4554 40.5864 41.6507 39.2287 41.7983C38.3285 41.872 37.4432 41.8131 36.5432 41.8278C36.5284 42.6246 36.558 43.4214 36.5284 44.2331C36.4989 44.72 35.9677 45.1036 35.4807 44.9857C35.1118 44.9119 34.8167 44.5872 34.8019 44.2036C34.7724 43.4216 34.8019 42.6248 34.7871 41.828H30.198C30.1832 42.6248 30.2128 43.4216 30.1832 44.2333C30.1537 44.7202 29.6225 45.1038 29.1502 44.9859C28.7812 44.9121 28.4713 44.5874 28.4567 44.2038C28.4272 43.407 28.4567 42.625 28.4419 41.8282C27.6008 41.8134 26.7449 41.843 25.9038 41.8134C24.4872 41.7248 23.2476 40.4853 23.1739 39.0687C23.1445 37.8735 23.1739 36.6782 23.1591 35.483C22.3917 35.4682 21.6245 35.4978 20.872 35.4682C20.4145 35.483 19.9866 35.0697 20.0014 34.6122C19.972 34.1401 20.3999 33.7269 20.8574 33.7269C21.6247 33.6974 22.3919 33.7269 23.1593 33.712V30.1706C22.3919 30.1557 21.6247 30.1854 20.8722 30.1557C20.4001 30.1852 19.9868 29.7573 20.0016 29.2998C19.9868 28.8423 20.4001 28.4145 20.8722 28.4293C21.6396 28.4145 22.4068 28.4293 23.1741 28.4145C23.2479 27.2487 22.9676 26.024 23.4397 24.9173C23.8824 23.8991 24.9449 23.1613 26.0516 23.1465C26.8484 23.1317 27.6601 23.1465 28.4569 23.1465C28.4569 22.3789 28.4273 21.5821 28.4569 20.8001M25.786 24.9613C25.2399 25.1236 24.8712 25.6696 24.9154 26.2157V38.7585C24.8712 39.452 25.4761 40.1014 26.1698 40.0571H38.8599C39.5533 40.0866 40.1142 39.4374 40.0846 38.7585C40.0994 34.5679 40.0846 30.3916 40.0846 26.201C40.1288 25.537 39.5533 24.8729 38.8599 24.9024C34.7281 24.8876 30.5966 24.9024 26.4501 24.9024C26.2287 24.917 26.0074 24.9022 25.786 24.9613L25.786 24.9613Z" fill="white"/>
<path d="M29.0329 28.5027C29.2985 28.4289 29.5789 28.4436 29.8591 28.4436C31.7775 28.4584 33.6957 28.4436 35.6287 28.4584C36.1156 28.4289 36.5583 28.842 36.5435 29.3289C36.5729 31.3062 36.5435 33.2688 36.5583 35.2462C36.5583 35.6152 36.5878 36.0579 36.2633 36.3235C36.0271 36.5743 35.6583 36.5448 35.3336 36.5596C33.3121 36.5448 31.2904 36.5745 29.2838 36.5448C28.8263 36.5448 28.4427 36.1316 28.4575 35.6743C28.4427 33.6085 28.4575 31.5425 28.4575 29.4914C28.413 29.0633 28.6196 28.6355 29.0328 28.5027M30.1984 30.1997C30.1836 31.7196 30.1984 33.2542 30.1984 34.7888C31.733 34.8036 33.2529 34.8036 34.7875 34.7888C34.7875 33.2542 34.8023 31.7342 34.7875 30.1997C33.2529 30.1849 31.7332 30.1849 30.1984 30.1997Z" fill="white"/>
</svg>
