<svg width="50" height="51" viewBox="0 0 50 51" fill="none" xmlns="http://www.w3.org/2000/svg">
<rect width="50" height="50.0053" rx="16" fill="#929BFF" fill-opacity="0.2"/>
<rect width="50" height="50.0053" rx="16" fill="url(#paint0_linear_200_48853)" fill-opacity="0.46"/>
<path d="M22.089 16.5761C22.0996 16.268 22.3758 16.013 22.6734 16.0023C23.0133 15.9705 23.332 16.268 23.332 16.6079C23.3532 17.171 23.332 17.7235 23.3427 18.2865H26.6468C26.6575 17.7128 26.6362 17.1498 26.6575 16.5761C26.6682 16.268 26.9444 16.013 27.2419 16.0023C27.5818 15.9705 27.9006 16.268 27.9006 16.6079C27.9218 17.171 27.9006 17.7235 27.9112 18.2865C28.6231 18.3184 29.3455 18.2228 30.0467 18.3396C30.9392 18.5309 31.6511 19.3489 31.7042 20.2627C31.7254 20.8683 31.7042 21.4739 31.7148 22.0795C32.2779 22.0901 32.8411 22.0688 33.4041 22.0901C33.7228 22.0901 34.0097 22.3982 33.999 22.7169C33.999 23.0357 33.7334 23.3332 33.4146 23.3332C32.8516 23.3544 32.2779 23.3332 31.7147 23.3439V25.8937C32.2777 25.9044 32.8409 25.883 33.404 25.9044C33.7334 25.9151 34.0202 26.2231 33.9989 26.5419C33.9989 26.8606 33.7227 27.1474 33.404 27.1474C32.8409 27.1687 32.2777 27.1474 31.7147 27.1581C31.704 28.0187 31.7254 28.8793 31.704 29.7399C31.6509 30.7279 30.8222 31.5885 29.8447 31.6948C29.1965 31.7479 28.5591 31.7055 27.9111 31.716C27.9004 32.2897 27.9218 32.8634 27.9004 33.4478C27.8792 33.7984 27.4967 34.0746 27.1461 33.9897C26.8805 33.9366 26.668 33.7028 26.6574 33.4266C26.6362 32.8636 26.6574 32.2899 26.6467 31.7161H23.3425C23.3319 32.2899 23.3532 32.8636 23.3319 33.448C23.3107 33.7986 22.9282 34.0748 22.5881 33.9898C22.3225 33.9367 22.0993 33.703 22.0888 33.4268C22.0676 32.8531 22.0888 32.29 22.0781 31.7163C21.4726 31.7056 20.8563 31.727 20.2507 31.7056C19.2308 31.6419 18.3383 30.7494 18.2852 29.7295C18.264 28.8689 18.2852 28.0083 18.2746 27.1477C17.722 27.1371 17.1697 27.1584 16.6278 27.1371C16.2984 27.1477 15.9904 26.8502 16.001 26.5208C15.9798 26.1809 16.2879 25.8833 16.6173 25.8833C17.1698 25.8621 17.7222 25.8833 18.2747 25.8727V23.3228C17.7222 23.3121 17.1698 23.3335 16.628 23.3121C16.288 23.3333 15.9905 23.0253 16.0012 22.6959C15.9905 22.3665 16.288 22.0584 16.628 22.0691C17.1805 22.0584 17.7329 22.0691 18.2854 22.0584C18.3385 21.219 18.1367 20.3373 18.4766 19.5404C18.7954 18.8073 19.5603 18.2762 20.3571 18.2655C20.9309 18.2548 21.5153 18.2655 22.089 18.2655C22.089 17.7128 22.0676 17.1391 22.089 16.5761M20.1659 19.5722C19.7727 19.689 19.5072 20.0821 19.5391 20.4753V29.5061C19.5072 30.0054 19.9428 30.473 20.4422 30.4411H29.5791C30.0784 30.4623 30.4822 29.9949 30.4609 29.5061C30.4716 26.4889 30.4609 23.4819 30.4609 20.4647C30.4928 19.9866 30.0784 19.5085 29.5791 19.5297C26.6042 19.519 23.6296 19.5297 20.644 19.5297C20.4847 19.5402 20.3253 19.5296 20.1659 19.5721L20.1659 19.5722Z" fill="white"/>
<path d="M22.5039 22.122C22.6952 22.0689 22.8971 22.0795 23.0989 22.0795C24.4801 22.0901 25.8612 22.0795 27.253 22.0901C27.6036 22.0689 27.9223 22.3663 27.9116 22.7169C27.9328 24.1405 27.9116 25.5536 27.9223 26.9774C27.9223 27.243 27.9435 27.5618 27.7098 27.753C27.5398 27.9336 27.2743 27.9124 27.0405 27.923C25.585 27.9124 24.1294 27.9337 22.6846 27.9124C22.3552 27.9124 22.079 27.6148 22.0897 27.2856C22.079 25.7982 22.0897 24.3107 22.0897 22.8339C22.0577 22.5257 22.2064 22.2176 22.5039 22.122M23.3431 23.3439C23.3325 24.4382 23.3431 25.5431 23.3431 26.648C24.448 26.6587 25.5424 26.6587 26.6473 26.648C26.6473 25.5431 26.658 24.4488 26.6473 23.3439C25.5424 23.3332 24.4482 23.3332 23.3431 23.3439Z" fill="white"/>
<defs>
<linearGradient id="paint0_linear_200_48853" x1="15.2344" y1="-8.98533" x2="25.002" y2="50.005" gradientUnits="userSpaceOnUse">
<stop stop-color="#929BFF"/>
<stop offset="1" stop-color="#929BFF" stop-opacity="0"/>
</linearGradient>
</defs>
</svg>
