<svg width="289" height="357" viewBox="0 0 289 357" fill="none" xmlns="http://www.w3.org/2000/svg">
<mask id="mask0_200_48799" style="mask-type:alpha" maskUnits="userSpaceOnUse" x="0" y="-21" width="299" height="400">
<rect y="-21" width="299" height="400" fill="url(#paint0_linear_200_48799)"/>
</mask>
<g mask="url(#mask0_200_48799)">
<line x1="31.5" y1="-72" x2="31.5" y2="402" stroke="white" stroke-opacity="0.3" stroke-dasharray="4 4"/>
<g clip-path="url(#clip0_200_48799)">
<rect width="16" height="16" transform="translate(23 2)" fill="#1A1822"/>
<path d="M31 12C32.1046 12 33 11.1046 33 10C33 8.89543 32.1046 8 31 8C29.8954 8 29 8.89543 29 10C29 11.1046 29.8954 12 31 12Z" fill="#A485FF"/>
<path d="M31 17.5C35.1421 17.5 38.5 14.1421 38.5 10C38.5 5.85786 35.1421 2.5 31 2.5C26.8579 2.5 23.5 5.85786 23.5 10C23.5 14.1421 26.8579 17.5 31 17.5Z" stroke="#A485FF"/>
</g>
<path d="M54 10C54 1.71573 60.7157 -5 69 -5H284C292.284 -5 299 1.71573 299 10C299 18.2843 292.284 25 284 25H69C60.7157 25 54 18.2843 54 10Z" fill="white" fill-opacity="0.05"/>
<path d="M76.5585 14.11C76.0305 14.11 75.5758 14.022 75.1945 13.846C74.8205 13.67 74.5308 13.417 74.3255 13.087C74.1201 12.757 74.0138 12.3647 74.0065 11.91H74.9965C74.9965 12.3133 75.1321 12.6323 75.4035 12.867C75.6821 13.1017 76.0671 13.219 76.5585 13.219C77.0205 13.219 77.3798 13.1053 77.6365 12.878C77.9005 12.6507 78.0325 12.3353 78.0325 11.932C78.0325 11.6093 77.9445 11.327 77.7685 11.085C77.5998 10.843 77.3541 10.6743 77.0315 10.579L75.9425 10.238C75.3925 10.0693 74.9671 9.787 74.6665 9.391C74.3731 8.995 74.2265 8.52933 74.2265 7.994C74.2265 7.56133 74.3218 7.18733 74.5125 6.872C74.7105 6.54933 74.9855 6.3 75.3375 6.124C75.6895 5.94067 76.1038 5.849 76.5805 5.849C77.2845 5.849 77.8491 6.047 78.2745 6.443C78.6998 6.83167 78.9161 7.35233 78.9235 8.005H77.9335C77.9335 7.609 77.8125 7.301 77.5705 7.081C77.3358 6.85367 77.0021 6.74 76.5695 6.74C76.1441 6.74 75.8105 6.84267 75.5685 7.048C75.3338 7.25333 75.2165 7.53933 75.2165 7.906C75.2165 8.236 75.3045 8.522 75.4805 8.764C75.6565 9.006 75.9095 9.17833 76.2395 9.281L77.3395 9.633C77.8748 9.80167 78.2891 10.0877 78.5825 10.491C78.8758 10.8943 79.0225 11.3673 79.0225 11.91C79.0225 12.35 78.9198 12.735 78.7145 13.065C78.5091 13.395 78.2195 13.6517 77.8455 13.835C77.4788 14.0183 77.0498 14.11 76.5585 14.11ZM84.0702 14C83.5495 14 83.1425 13.8607 82.8492 13.582C82.5632 13.3033 82.4202 12.911 82.4202 12.405V8.852H80.7152V7.95H82.4202V6.245H83.4102V7.95H85.8302V8.852H83.4102V12.405C83.4102 12.867 83.6302 13.098 84.0702 13.098H85.7202V14H84.0702ZM90.2949 14.11C89.5982 14.11 89.0409 13.9047 88.6229 13.494C88.2049 13.076 87.9959 12.5113 87.9959 11.8V7.95H88.9859V11.8C88.9859 12.2547 89.1032 12.6103 89.3379 12.867C89.5725 13.1163 89.8915 13.241 90.2949 13.241C90.7055 13.241 91.0282 13.1163 91.2629 12.867C91.5049 12.6103 91.6259 12.2547 91.6259 11.8V7.95H92.6159V11.8C92.6159 12.5113 92.4032 13.076 91.9779 13.494C91.5525 13.9047 90.9915 14.11 90.2949 14.11ZM96.6736 14.11C96.0356 14.11 95.5332 13.9487 95.1666 13.626C94.7999 13.296 94.6166 12.8523 94.6166 12.295C94.6166 11.7303 94.7999 11.2867 95.1666 10.964C95.5332 10.6413 96.0282 10.48 96.6516 10.48H98.5216V9.875C98.5216 9.501 98.4079 9.215 98.1806 9.017C97.9606 8.81167 97.6452 8.709 97.2346 8.709C96.8752 8.709 96.5746 8.786 96.3326 8.94C96.0906 9.08667 95.9512 9.28833 95.9146 9.545H94.9246C94.9906 9.02433 95.2362 8.61 95.6616 8.302C96.0869 7.994 96.6186 7.84 97.2566 7.84C97.9532 7.84 98.5032 8.01967 98.9066 8.379C99.3099 8.73833 99.5116 9.226 99.5116 9.842V14H98.5436V12.845H98.3786L98.5436 12.68C98.5436 13.12 98.3712 13.4683 98.0266 13.725C97.6892 13.9817 97.2382 14.11 96.6736 14.11ZM96.9156 13.329C97.3849 13.329 97.7699 13.2117 98.0706 12.977C98.3712 12.7423 98.5216 12.4417 98.5216 12.075V11.217H96.6736C96.3436 11.217 96.0832 11.3087 95.8926 11.492C95.7019 11.6753 95.6066 11.9247 95.6066 12.24C95.6066 12.5773 95.7202 12.845 95.9476 13.043C96.1822 13.2337 96.5049 13.329 96.9156 13.329ZM102.018 14V7.95H102.986V9.105H103.217L102.898 9.82C102.898 9.16733 103.038 8.676 103.316 8.346C103.602 8.00867 104.024 7.84 104.581 7.84C105.219 7.84 105.725 8.04167 106.099 8.445C106.481 8.841 106.671 9.38 106.671 10.062V10.425H105.681V10.15C105.681 9.67333 105.564 9.31033 105.329 9.061C105.102 8.80433 104.776 8.676 104.35 8.676C103.932 8.676 103.602 8.80433 103.36 9.061C103.126 9.31767 103.008 9.68067 103.008 10.15V14H102.018ZM111.653 14C111.132 14 110.725 13.8607 110.432 13.582C110.146 13.3033 110.003 12.911 110.003 12.405V8.852H108.298V7.95H110.003V6.245H110.993V7.95H113.413V8.852H110.993V12.405C110.993 12.867 111.213 13.098 111.653 13.098H113.303V14H111.653ZM124.256 14.11C123.618 14.11 123.116 13.9487 122.749 13.626C122.383 13.296 122.199 12.8523 122.199 12.295C122.199 11.7303 122.383 11.2867 122.749 10.964C123.116 10.6413 123.611 10.48 124.234 10.48H126.104V9.875C126.104 9.501 125.991 9.215 125.763 9.017C125.543 8.81167 125.228 8.709 124.817 8.709C124.458 8.709 124.157 8.786 123.915 8.94C123.673 9.08667 123.534 9.28833 123.497 9.545H122.507C122.573 9.02433 122.819 8.61 123.244 8.302C123.67 7.994 124.201 7.84 124.839 7.84C125.536 7.84 126.086 8.01967 126.489 8.379C126.893 8.73833 127.094 9.226 127.094 9.842V14H126.126V12.845H125.961L126.126 12.68C126.126 13.12 125.954 13.4683 125.609 13.725C125.272 13.9817 124.821 14.11 124.256 14.11ZM124.498 13.329C124.968 13.329 125.353 13.2117 125.653 12.977C125.954 12.7423 126.104 12.4417 126.104 12.075V11.217H124.256C123.926 11.217 123.666 11.3087 123.475 11.492C123.285 11.6753 123.189 11.9247 123.189 12.24C123.189 12.5773 123.303 12.845 123.53 13.043C123.765 13.2337 124.088 13.329 124.498 13.329ZM131.328 14.11C130.727 14.11 130.239 13.9083 129.865 13.505C129.498 13.1017 129.315 12.5553 129.315 11.866V10.095C129.315 9.39833 129.498 8.84833 129.865 8.445C130.232 8.04167 130.719 7.84 131.328 7.84C131.827 7.84 132.226 7.97567 132.527 8.247C132.828 8.51833 132.978 8.88133 132.978 9.336L132.78 9.105H133L132.978 7.73V5.97H133.968V14H132.978V12.845H132.78L132.978 12.614C132.978 13.076 132.828 13.4427 132.527 13.714C132.226 13.978 131.827 14.11 131.328 14.11ZM131.658 13.252C132.069 13.252 132.391 13.1237 132.626 12.867C132.861 12.6103 132.978 12.2547 132.978 11.8V10.15C132.978 9.69533 132.861 9.33967 132.626 9.083C132.391 8.82633 132.069 8.698 131.658 8.698C131.24 8.698 130.91 8.82267 130.668 9.072C130.426 9.32133 130.305 9.68067 130.305 10.15V11.8C130.305 12.2693 130.426 12.6287 130.668 12.878C130.91 13.1273 131.24 13.252 131.658 13.252ZM138.224 14.11C137.622 14.11 137.135 13.9083 136.761 13.505C136.394 13.1017 136.211 12.5553 136.211 11.866V10.095C136.211 9.39833 136.394 8.84833 136.761 8.445C137.127 8.04167 137.615 7.84 138.224 7.84C138.722 7.84 139.122 7.97567 139.423 8.247C139.723 8.51833 139.874 8.88133 139.874 9.336L139.676 9.105H139.896L139.874 7.73V5.97H140.864V14H139.874V12.845H139.676L139.874 12.614C139.874 13.076 139.723 13.4427 139.423 13.714C139.122 13.978 138.722 14.11 138.224 14.11ZM138.554 13.252C138.964 13.252 139.287 13.1237 139.522 12.867C139.756 12.6103 139.874 12.2547 139.874 11.8V10.15C139.874 9.69533 139.756 9.33967 139.522 9.083C139.287 8.82633 138.964 8.698 138.554 8.698C138.136 8.698 137.806 8.82267 137.564 9.072C137.322 9.32133 137.201 9.68067 137.201 10.15V11.8C137.201 12.2693 137.322 12.6287 137.564 12.878C137.806 13.1273 138.136 13.252 138.554 13.252ZM145.471 14.11C144.995 14.11 144.577 14.0147 144.217 13.824C143.865 13.6333 143.59 13.3657 143.392 13.021C143.202 12.669 143.106 12.262 143.106 11.8V10.15C143.106 9.68067 143.202 9.27367 143.392 8.929C143.59 8.58433 143.865 8.31667 144.217 8.126C144.577 7.93533 144.995 7.84 145.471 7.84C145.948 7.84 146.362 7.93533 146.714 8.126C147.074 8.31667 147.349 8.58433 147.539 8.929C147.737 9.27367 147.836 9.68067 147.836 10.15V11.217H144.074V11.8C144.074 12.2767 144.195 12.6433 144.437 12.9C144.679 13.1493 145.024 13.274 145.471 13.274C145.853 13.274 146.161 13.208 146.395 13.076C146.63 12.9367 146.773 12.7313 146.824 12.46H147.814C147.748 12.966 147.499 13.3693 147.066 13.67C146.641 13.9633 146.109 14.11 145.471 14.11ZM146.868 10.557V10.15C146.868 9.67333 146.747 9.30667 146.505 9.05C146.271 8.79333 145.926 8.665 145.471 8.665C145.024 8.665 144.679 8.79333 144.437 9.05C144.195 9.30667 144.074 9.67333 144.074 10.15V10.469H146.945L146.868 10.557ZM152.015 14.11C151.414 14.11 150.926 13.9083 150.552 13.505C150.186 13.1017 150.002 12.5553 150.002 11.866V10.095C150.002 9.39833 150.186 8.84833 150.552 8.445C150.919 8.04167 151.407 7.84 152.015 7.84C152.514 7.84 152.914 7.97567 153.214 8.247C153.515 8.51833 153.665 8.88133 153.665 9.336L153.467 9.105H153.687L153.665 7.73V5.97H154.655V14H153.665V12.845H153.467L153.665 12.614C153.665 13.076 153.515 13.4427 153.214 13.714C152.914 13.978 152.514 14.11 152.015 14.11ZM152.345 13.252C152.756 13.252 153.079 13.1237 153.313 12.867C153.548 12.6103 153.665 12.2547 153.665 11.8V10.15C153.665 9.69533 153.548 9.33967 153.313 9.083C153.079 8.82633 152.756 8.698 152.345 8.698C151.927 8.698 151.597 8.82267 151.355 9.072C151.113 9.32133 150.992 9.68067 150.992 10.15V11.8C150.992 12.2693 151.113 12.6287 151.355 12.878C151.597 13.1273 151.927 13.252 152.345 13.252ZM165.631 14.11C164.993 14.11 164.49 13.9487 164.124 13.626C163.757 13.296 163.574 12.8523 163.574 12.295C163.574 11.7303 163.757 11.2867 164.124 10.964C164.49 10.6413 164.985 10.48 165.609 10.48H167.479V9.875C167.479 9.501 167.365 9.215 167.138 9.017C166.918 8.81167 166.602 8.709 166.192 8.709C165.832 8.709 165.532 8.786 165.29 8.94C165.048 9.08667 164.908 9.28833 164.872 9.545H163.882C163.948 9.02433 164.193 8.61 164.619 8.302C165.044 7.994 165.576 7.84 166.214 7.84C166.91 7.84 167.46 8.01967 167.864 8.379C168.267 8.73833 168.469 9.226 168.469 9.842V14H167.501V12.845H167.336L167.501 12.68C167.501 13.12 167.328 13.4683 166.984 13.725C166.646 13.9817 166.195 14.11 165.631 14.11ZM165.873 13.329C166.342 13.329 166.727 13.2117 167.028 12.977C167.328 12.7423 167.479 12.4417 167.479 12.075V11.217H165.631C165.301 11.217 165.04 11.3087 164.85 11.492C164.659 11.6753 164.564 11.9247 164.564 12.24C164.564 12.5773 164.677 12.845 164.905 13.043C165.139 13.2337 165.462 13.329 165.873 13.329ZM179.07 14V9.457H177.31V8.555H179.07V7.51C179.07 7.03333 179.22 6.65933 179.521 6.388C179.822 6.10933 180.236 5.97 180.764 5.97H182.535V6.872H180.764C180.537 6.872 180.361 6.927 180.236 7.037C180.119 7.13967 180.06 7.29733 180.06 7.51V8.555H182.535V9.457H180.06V14H179.07ZM186.846 14.11C186.369 14.11 185.951 14.0147 185.592 13.824C185.24 13.6333 184.965 13.3657 184.767 13.021C184.576 12.669 184.481 12.262 184.481 11.8V10.15C184.481 9.68067 184.576 9.27367 184.767 8.929C184.965 8.58433 185.24 8.31667 185.592 8.126C185.951 7.93533 186.369 7.84 186.846 7.84C187.322 7.84 187.737 7.93533 188.089 8.126C188.448 8.31667 188.723 8.58433 188.914 8.929C189.112 9.27367 189.211 9.68067 189.211 10.15V11.217H185.449V11.8C185.449 12.2767 185.57 12.6433 185.812 12.9C186.054 13.1493 186.398 13.274 186.846 13.274C187.227 13.274 187.535 13.208 187.77 13.076C188.004 12.9367 188.147 12.7313 188.199 12.46H189.189C189.123 12.966 188.873 13.3693 188.441 13.67C188.015 13.9633 187.484 14.11 186.846 14.11ZM188.243 10.557V10.15C188.243 9.67333 188.122 9.30667 187.88 9.05C187.645 8.79333 187.3 8.665 186.846 8.665C186.398 8.665 186.054 8.79333 185.812 9.05C185.57 9.30667 185.449 9.67333 185.449 10.15V10.469H188.32L188.243 10.557ZM193.213 14.11C192.575 14.11 192.073 13.9487 191.706 13.626C191.34 13.296 191.156 12.8523 191.156 12.295C191.156 11.7303 191.34 11.2867 191.706 10.964C192.073 10.6413 192.568 10.48 193.191 10.48H195.061V9.875C195.061 9.501 194.948 9.215 194.72 9.017C194.5 8.81167 194.185 8.709 193.774 8.709C193.415 8.709 193.114 8.786 192.872 8.94C192.63 9.08667 192.491 9.28833 192.454 9.545H191.464C191.53 9.02433 191.776 8.61 192.201 8.302C192.627 7.994 193.158 7.84 193.796 7.84C194.493 7.84 195.043 8.01967 195.446 8.379C195.85 8.73833 196.051 9.226 196.051 9.842V14H195.083V12.845H194.918L195.083 12.68C195.083 13.12 194.911 13.4683 194.566 13.725C194.229 13.9817 193.778 14.11 193.213 14.11ZM193.455 13.329C193.925 13.329 194.31 13.2117 194.61 12.977C194.911 12.7423 195.061 12.4417 195.061 12.075V11.217H193.213C192.883 11.217 192.623 11.3087 192.432 11.492C192.242 11.6753 192.146 11.9247 192.146 12.24C192.146 12.5773 192.26 12.845 192.487 13.043C192.722 13.2337 193.045 13.329 193.455 13.329ZM201.297 14C200.776 14 200.369 13.8607 200.076 13.582C199.79 13.3033 199.647 12.911 199.647 12.405V8.852H197.942V7.95H199.647V6.245H200.637V7.95H203.057V8.852H200.637V12.405C200.637 12.867 200.857 13.098 201.297 13.098H202.947V14H201.297ZM207.522 14.11C206.825 14.11 206.268 13.9047 205.85 13.494C205.432 13.076 205.223 12.5113 205.223 11.8V7.95H206.213V11.8C206.213 12.2547 206.33 12.6103 206.565 12.867C206.799 13.1163 207.118 13.241 207.522 13.241C207.932 13.241 208.255 13.1163 208.49 12.867C208.732 12.6103 208.853 12.2547 208.853 11.8V7.95H209.843V11.8C209.843 12.5113 209.63 13.076 209.205 13.494C208.779 13.9047 208.218 14.11 207.522 14.11ZM212.35 14V7.95H213.318V9.105H213.549L213.23 9.82C213.23 9.16733 213.369 8.676 213.648 8.346C213.934 8.00867 214.355 7.84 214.913 7.84C215.551 7.84 216.057 8.04167 216.431 8.445C216.812 8.841 217.003 9.38 217.003 10.062V10.425H216.013V10.15C216.013 9.67333 215.895 9.31033 215.661 9.061C215.433 8.80433 215.107 8.676 214.682 8.676C214.264 8.676 213.934 8.80433 213.692 9.061C213.457 9.31767 213.34 9.68067 213.34 10.15V14H212.35ZM221.324 14.11C220.848 14.11 220.43 14.0147 220.07 13.824C219.718 13.6333 219.443 13.3657 219.245 13.021C219.055 12.669 218.959 12.262 218.959 11.8V10.15C218.959 9.68067 219.055 9.27367 219.245 8.929C219.443 8.58433 219.718 8.31667 220.07 8.126C220.43 7.93533 220.848 7.84 221.324 7.84C221.801 7.84 222.215 7.93533 222.567 8.126C222.927 8.31667 223.202 8.58433 223.392 8.929C223.59 9.27367 223.689 9.68067 223.689 10.15V11.217H219.927V11.8C219.927 12.2767 220.048 12.6433 220.29 12.9C220.532 13.1493 220.877 13.274 221.324 13.274C221.706 13.274 222.014 13.208 222.248 13.076C222.483 12.9367 222.626 12.7313 222.677 12.46H223.667C223.601 12.966 223.352 13.3693 222.919 13.67C222.494 13.9633 221.962 14.11 221.324 14.11ZM222.721 10.557V10.15C222.721 9.67333 222.6 9.30667 222.358 9.05C222.124 8.79333 221.779 8.665 221.324 8.665C220.877 8.665 220.532 8.79333 220.29 9.05C220.048 9.30667 219.927 9.67333 219.927 10.15V10.469H222.798L222.721 10.557ZM233.037 14V7.95H234.005V9.105H234.236L233.917 9.82C233.917 9.16733 234.056 8.676 234.335 8.346C234.621 8.00867 235.042 7.84 235.6 7.84C236.238 7.84 236.744 8.04167 237.118 8.445C237.499 8.841 237.69 9.38 237.69 10.062V10.425H236.7V10.15C236.7 9.67333 236.582 9.31033 236.348 9.061C236.12 8.80433 235.794 8.676 235.369 8.676C234.951 8.676 234.621 8.80433 234.379 9.061C234.144 9.31767 234.027 9.68067 234.027 10.15V14H233.037ZM242.011 14.11C241.535 14.11 241.117 14.0147 240.757 13.824C240.405 13.6333 240.13 13.3657 239.932 13.021C239.742 12.669 239.646 12.262 239.646 11.8V10.15C239.646 9.68067 239.742 9.27367 239.932 8.929C240.13 8.58433 240.405 8.31667 240.757 8.126C241.117 7.93533 241.535 7.84 242.011 7.84C242.488 7.84 242.902 7.93533 243.254 8.126C243.614 8.31667 243.889 8.58433 244.079 8.929C244.277 9.27367 244.376 9.68067 244.376 10.15V11.217H240.614V11.8C240.614 12.2767 240.735 12.6433 240.977 12.9C241.219 13.1493 241.564 13.274 242.011 13.274C242.393 13.274 242.701 13.208 242.935 13.076C243.17 12.9367 243.313 12.7313 243.364 12.46H244.354C244.288 12.966 244.039 13.3693 243.606 13.67C243.181 13.9633 242.649 14.11 242.011 14.11ZM243.408 10.557V10.15C243.408 9.67333 243.287 9.30667 243.045 9.05C242.811 8.79333 242.466 8.665 242.011 8.665C241.564 8.665 241.219 8.79333 240.977 9.05C240.735 9.30667 240.614 9.67333 240.614 10.15V10.469H243.485L243.408 10.557ZM250.205 15.98V14.22L250.227 12.845H250.007L250.205 12.614C250.205 13.0687 250.055 13.4317 249.754 13.703C249.453 13.9743 249.054 14.11 248.555 14.11C247.946 14.11 247.462 13.9083 247.103 13.505C246.751 13.1017 246.575 12.5517 246.575 11.855V10.084C246.575 9.38733 246.755 8.841 247.114 8.445C247.473 8.04167 247.954 7.84 248.555 7.84C249.054 7.84 249.453 7.97567 249.754 8.247C250.055 8.511 250.205 8.874 250.205 9.336L250.007 9.105H250.205V7.95H251.195V15.98H250.205ZM248.885 13.252C249.296 13.252 249.618 13.1237 249.853 12.867C250.088 12.6103 250.205 12.2547 250.205 11.8V10.15C250.205 9.69533 250.088 9.33967 249.853 9.083C249.618 8.82633 249.296 8.698 248.885 8.698C248.467 8.698 248.141 8.82267 247.906 9.072C247.679 9.32133 247.565 9.68067 247.565 10.15V11.8C247.565 12.2693 247.679 12.6287 247.906 12.878C248.141 13.1273 248.467 13.252 248.885 13.252ZM255.792 14.11C255.095 14.11 254.538 13.9047 254.12 13.494C253.702 13.076 253.493 12.5113 253.493 11.8V7.95H254.483V11.8C254.483 12.2547 254.6 12.6103 254.835 12.867C255.069 13.1163 255.388 13.241 255.792 13.241C256.202 13.241 256.525 13.1163 256.76 12.867C257.002 12.6103 257.123 12.2547 257.123 11.8V7.95H258.113V11.8C258.113 12.5113 257.9 13.076 257.475 13.494C257.049 13.9047 256.488 14.11 255.792 14.11ZM262.698 14.11C262.222 14.11 261.804 14.0147 261.444 13.824C261.092 13.6333 260.817 13.3657 260.619 13.021C260.429 12.669 260.333 12.262 260.333 11.8V10.15C260.333 9.68067 260.429 9.27367 260.619 8.929C260.817 8.58433 261.092 8.31667 261.444 8.126C261.804 7.93533 262.222 7.84 262.698 7.84C263.175 7.84 263.589 7.93533 263.941 8.126C264.301 8.31667 264.576 8.58433 264.766 8.929C264.964 9.27367 265.063 9.68067 265.063 10.15V11.217H261.301V11.8C261.301 12.2767 261.422 12.6433 261.664 12.9C261.906 13.1493 262.251 13.274 262.698 13.274C263.08 13.274 263.388 13.208 263.622 13.076C263.857 12.9367 264 12.7313 264.051 12.46H265.041C264.975 12.966 264.726 13.3693 264.293 13.67C263.868 13.9633 263.336 14.11 262.698 14.11ZM264.095 10.557V10.15C264.095 9.67333 263.974 9.30667 263.732 9.05C263.498 8.79333 263.153 8.665 262.698 8.665C262.251 8.665 261.906 8.79333 261.664 9.05C261.422 9.30667 261.301 9.67333 261.301 10.15V10.469H264.172L264.095 10.557ZM269.407 14.088C268.996 14.088 268.637 14.0257 268.329 13.901C268.028 13.769 267.786 13.5857 267.603 13.351C267.427 13.1163 267.321 12.8377 267.284 12.515H268.274C268.318 12.7277 268.435 12.8963 268.626 13.021C268.824 13.1457 269.084 13.208 269.407 13.208H269.869C270.258 13.208 270.547 13.131 270.738 12.977C270.929 12.8157 271.024 12.603 271.024 12.339C271.024 12.0823 270.936 11.8807 270.76 11.734C270.591 11.58 270.338 11.4773 270.001 11.426L269.187 11.294C268.593 11.1913 268.149 11.008 267.856 10.744C267.57 10.4727 267.427 10.0803 267.427 9.567C267.427 9.02433 267.599 8.60633 267.944 8.313C268.289 8.01233 268.806 7.862 269.495 7.862H269.913C270.492 7.862 270.958 7.99767 271.31 8.269C271.662 8.54033 271.875 8.907 271.948 9.369H270.958C270.914 9.17833 270.804 9.028 270.628 8.918C270.452 8.80067 270.214 8.742 269.913 8.742H269.495C269.121 8.742 268.846 8.81167 268.67 8.951C268.501 9.09033 268.417 9.29933 268.417 9.578C268.417 9.82733 268.49 10.0107 268.637 10.128C268.784 10.2453 269.015 10.3297 269.33 10.381L270.144 10.513C270.797 10.6157 271.27 10.8063 271.563 11.085C271.864 11.3637 272.014 11.767 272.014 12.295C272.014 12.8523 271.834 13.2923 271.475 13.615C271.123 13.9303 270.588 14.088 269.869 14.088H269.407ZM277.15 14C276.629 14 276.222 13.8607 275.929 13.582C275.643 13.3033 275.5 12.911 275.5 12.405V8.852H273.795V7.95H275.5V6.245H276.49V7.95H278.91V8.852H276.49V12.405C276.49 12.867 276.71 13.098 277.15 13.098H278.8V14H277.15Z" fill="white" fill-opacity="0.8"/>
<path d="M54.5 10C54.5 1.99187 60.9919 -4.5 69 -4.5H284C292.008 -4.5 298.5 1.99187 298.5 10C298.5 18.0081 292.008 24.5 284 24.5H69C60.9919 24.5 54.5 18.0081 54.5 10Z" stroke="white" stroke-opacity="0.1"/>
<g clip-path="url(#clip1_200_48799)">
<rect width="16" height="16" transform="translate(23 80)" fill="#1A1822"/>
<path d="M31 90C32.1046 90 33 89.1046 33 88C33 86.8954 32.1046 86 31 86C29.8954 86 29 86.8954 29 88C29 89.1046 29.8954 90 31 90Z" fill="#A485FF"/>
<path d="M31 95.5C35.1421 95.5 38.5 92.1421 38.5 88C38.5 83.8579 35.1421 80.5 31 80.5C26.8579 80.5 23.5 83.8579 23.5 88C23.5 92.1421 26.8579 95.5 31 95.5Z" stroke="#A485FF"/>
</g>
<path d="M54 88C54 79.7157 60.7157 73 69 73H177C185.284 73 192 79.7157 192 88C192 96.2843 185.284 103 177 103H69C60.7157 103 54 96.2843 54 88Z" fill="white" fill-opacity="0.05"/>
<path d="M72.4442 92V83.97H75.0292C75.5279 83.97 75.9606 84.069 76.3272 84.267C76.6939 84.4577 76.9762 84.729 77.1742 85.081C77.3796 85.433 77.4822 85.851 77.4822 86.335C77.4822 86.8117 77.3796 87.2297 77.1742 87.589C76.9762 87.941 76.6939 88.216 76.3272 88.414C75.9606 88.6047 75.5279 88.7 75.0292 88.7H73.4342V92H72.4442ZM73.4342 87.809H75.0292C75.4619 87.809 75.8066 87.677 76.0632 87.413C76.3272 87.1417 76.4592 86.7823 76.4592 86.335C76.4592 85.8803 76.3272 85.521 76.0632 85.257C75.8066 84.993 75.4619 84.861 75.0292 84.861H73.4342V87.809ZM79.5489 92V85.95H80.5169V87.105H80.7479L80.4289 87.82C80.4289 87.1673 80.5683 86.676 80.8469 86.346C81.1329 86.0087 81.5546 85.84 82.1119 85.84C82.7499 85.84 83.2559 86.0417 83.6299 86.445C84.0113 86.841 84.2019 87.38 84.2019 88.062V88.425H83.2119V88.15C83.2119 87.6733 83.0946 87.3103 82.8599 87.061C82.6326 86.8043 82.3063 86.676 81.8809 86.676C81.4629 86.676 81.1329 86.8043 80.8909 87.061C80.6563 87.3177 80.5389 87.6807 80.5389 88.15V92H79.5489ZM88.5236 92.11C88.047 92.11 87.629 92.0147 87.2696 91.824C86.9176 91.6333 86.6426 91.3657 86.4446 91.021C86.254 90.669 86.1586 90.262 86.1586 89.8V88.15C86.1586 87.6807 86.254 87.2737 86.4446 86.929C86.6426 86.5843 86.9176 86.3167 87.2696 86.126C87.629 85.9353 88.047 85.84 88.5236 85.84C89.0003 85.84 89.4146 85.9353 89.7666 86.126C90.126 86.3167 90.401 86.5843 90.5916 86.929C90.7896 87.2737 90.8886 87.6807 90.8886 88.15V89.217H87.1266V89.8C87.1266 90.2767 87.2476 90.6433 87.4896 90.9C87.7316 91.1493 88.0763 91.274 88.5236 91.274C88.905 91.274 89.213 91.208 89.4476 91.076C89.6823 90.9367 89.8253 90.7313 89.8766 90.46H90.8666C90.8006 90.966 90.5513 91.3693 90.1186 91.67C89.6933 91.9633 89.1616 92.11 88.5236 92.11ZM89.9206 88.557V88.15C89.9206 87.6733 89.7996 87.3067 89.5576 87.05C89.323 86.7933 88.9783 86.665 88.5236 86.665C88.0763 86.665 87.7316 86.7933 87.4896 87.05C87.2476 87.3067 87.1266 87.6733 87.1266 88.15V88.469H89.9976L89.9206 88.557ZM93.1313 93.98V85.95H94.1213V87.105H94.3193L94.1213 87.336C94.1213 86.874 94.2717 86.511 94.5723 86.247C94.8803 85.9757 95.2837 85.84 95.7823 85.84C96.391 85.84 96.875 86.0417 97.2343 86.445C97.601 86.841 97.7843 87.3873 97.7843 88.084V89.855C97.7843 90.317 97.7 90.7167 97.5313 91.054C97.37 91.3913 97.139 91.6517 96.8383 91.835C96.545 92.0183 96.193 92.11 95.7823 92.11C95.291 92.11 94.8913 91.9743 94.5833 91.703C94.2753 91.4317 94.1213 91.0687 94.1213 90.614L94.3193 90.845H94.0993L94.1213 92.22V93.98H93.1313ZM95.4523 91.252C95.8703 91.252 96.1967 91.1273 96.4313 90.878C96.6733 90.6287 96.7943 90.2693 96.7943 89.8V88.15C96.7943 87.6807 96.6733 87.3213 96.4313 87.072C96.1967 86.8227 95.8703 86.698 95.4523 86.698C95.049 86.698 94.7263 86.8263 94.4843 87.083C94.2423 87.3397 94.1213 87.6953 94.1213 88.15V89.8C94.1213 90.2547 94.2423 90.6103 94.4843 90.867C94.7263 91.1237 95.049 91.252 95.4523 91.252ZM101.787 92.11C101.149 92.11 100.647 91.9487 100.28 91.626C99.9134 91.296 99.73 90.8523 99.73 90.295C99.73 89.7303 99.9134 89.2867 100.28 88.964C100.647 88.6413 101.142 88.48 101.765 88.48H103.635V87.875C103.635 87.501 103.521 87.215 103.294 87.017C103.074 86.8117 102.759 86.709 102.348 86.709C101.989 86.709 101.688 86.786 101.446 86.94C101.204 87.0867 101.065 87.2883 101.028 87.545H100.038C100.104 87.0243 100.35 86.61 100.775 86.302C101.2 85.994 101.732 85.84 102.37 85.84C103.067 85.84 103.617 86.0197 104.02 86.379C104.423 86.7383 104.625 87.226 104.625 87.842V92H103.657V90.845H103.492L103.657 90.68C103.657 91.12 103.485 91.4683 103.14 91.725C102.803 91.9817 102.352 92.11 101.787 92.11ZM102.029 91.329C102.498 91.329 102.883 91.2117 103.184 90.977C103.485 90.7423 103.635 90.4417 103.635 90.075V89.217H101.787C101.457 89.217 101.197 89.3087 101.006 89.492C100.815 89.6753 100.72 89.9247 100.72 90.24C100.72 90.5773 100.834 90.845 101.061 91.043C101.296 91.2337 101.618 91.329 102.029 91.329ZM107.132 92V85.95H108.1V87.105H108.331L108.012 87.82C108.012 87.1673 108.151 86.676 108.43 86.346C108.716 86.0087 109.137 85.84 109.695 85.84C110.333 85.84 110.839 86.0417 111.213 86.445C111.594 86.841 111.785 87.38 111.785 88.062V88.425H110.795V88.15C110.795 87.6733 110.677 87.3103 110.443 87.061C110.215 86.8043 109.889 86.676 109.464 86.676C109.046 86.676 108.716 86.8043 108.474 87.061C108.239 87.3177 108.122 87.6807 108.122 88.15V92H107.132ZM113.741 92V91.098H115.886V86.852H114.016V85.95H116.876V91.098H118.911V92H113.741ZM116.271 84.861C116.029 84.861 115.839 84.7987 115.699 84.674C115.56 84.5493 115.49 84.3807 115.49 84.168C115.49 83.948 115.56 83.7757 115.699 83.651C115.839 83.519 116.029 83.453 116.271 83.453C116.513 83.453 116.704 83.519 116.843 83.651C116.983 83.7757 117.052 83.948 117.052 84.168C117.052 84.3807 116.983 84.5493 116.843 84.674C116.704 84.7987 116.513 84.861 116.271 84.861ZM120.714 92V85.95H121.704V87.105H121.913L121.704 87.336C121.704 86.8593 121.847 86.4927 122.133 86.236C122.419 85.972 122.815 85.84 123.321 85.84C123.93 85.84 124.414 86.027 124.773 86.401C125.132 86.775 125.312 87.2847 125.312 87.93V92H124.322V88.04C124.322 87.6073 124.205 87.2773 123.97 87.05C123.743 86.8153 123.431 86.698 123.035 86.698C122.624 86.698 122.298 86.8227 122.056 87.072C121.821 87.3213 121.704 87.6807 121.704 88.15V92H120.714ZM128.369 93.98V93.078H130.294C130.602 93.078 130.826 93.0083 130.965 92.869C131.112 92.7297 131.185 92.5133 131.185 92.22V91.45L131.207 90.35H131.009L131.196 90.185C131.196 90.625 131.049 90.9733 130.756 91.23C130.463 91.4867 130.07 91.615 129.579 91.615C128.956 91.615 128.464 91.4133 128.105 91.01C127.746 90.5993 127.566 90.0493 127.566 89.36V88.084C127.566 87.3947 127.746 86.8483 128.105 86.445C128.464 86.0417 128.956 85.84 129.579 85.84C130.07 85.84 130.463 85.9683 130.756 86.225C131.049 86.4817 131.196 86.83 131.196 87.27L131.009 87.105H131.196V85.95H132.175V92.22C132.175 92.7627 132.006 93.1917 131.669 93.507C131.339 93.8223 130.877 93.98 130.283 93.98H128.369ZM129.876 90.757C130.287 90.757 130.609 90.6287 130.844 90.372C131.079 90.1153 131.196 89.7597 131.196 89.305V88.15C131.196 87.6953 131.079 87.3397 130.844 87.083C130.609 86.8263 130.287 86.698 129.876 86.698C129.458 86.698 129.132 86.8227 128.897 87.072C128.67 87.3213 128.556 87.6807 128.556 88.15V89.305C128.556 89.7743 128.67 90.1337 128.897 90.383C129.132 90.6323 129.458 90.757 129.876 90.757ZM145.031 93.98L143.854 92.033L143.964 92.099C143.935 92.099 143.895 92.099 143.843 92.099C143.799 92.1063 143.748 92.11 143.689 92.11C143.198 92.11 142.769 92.0147 142.402 91.824C142.043 91.626 141.764 91.351 141.566 90.999C141.368 90.6397 141.269 90.2217 141.269 89.745V86.225C141.269 85.741 141.368 85.323 141.566 84.971C141.764 84.619 142.043 84.3477 142.402 84.157C142.769 83.959 143.198 83.86 143.689 83.86C144.188 83.86 144.617 83.959 144.976 84.157C145.336 84.3477 145.614 84.619 145.812 84.971C146.01 85.323 146.109 85.741 146.109 86.225V89.745C146.109 90.2363 146.003 90.6653 145.79 91.032C145.578 91.3987 145.277 91.6737 144.888 91.857L146.175 93.98H145.031ZM143.689 91.23C144.122 91.23 144.467 91.0943 144.723 90.823C144.987 90.5517 145.119 90.1923 145.119 89.745V86.225C145.119 85.7703 144.987 85.411 144.723 85.147C144.467 84.8757 144.122 84.74 143.689 84.74C143.257 84.74 142.908 84.8757 142.644 85.147C142.388 85.411 142.259 85.7703 142.259 86.225V89.745C142.259 90.1923 142.388 90.5517 142.644 90.823C142.908 91.0943 143.257 91.23 143.689 91.23ZM150.574 92.11C149.877 92.11 149.32 91.9047 148.902 91.494C148.484 91.076 148.275 90.5113 148.275 89.8V85.95H149.265V89.8C149.265 90.2547 149.382 90.6103 149.617 90.867C149.852 91.1163 150.171 91.241 150.574 91.241C150.985 91.241 151.307 91.1163 151.542 90.867C151.784 90.6103 151.905 90.2547 151.905 89.8V85.95H152.895V89.8C152.895 90.5113 152.682 91.076 152.257 91.494C151.832 91.9047 151.271 92.11 150.574 92.11ZM157.481 92.11C157.004 92.11 156.586 92.0147 156.227 91.824C155.875 91.6333 155.6 91.3657 155.402 91.021C155.211 90.669 155.116 90.262 155.116 89.8V88.15C155.116 87.6807 155.211 87.2737 155.402 86.929C155.6 86.5843 155.875 86.3167 156.227 86.126C156.586 85.9353 157.004 85.84 157.481 85.84C157.957 85.84 158.372 85.9353 158.724 86.126C159.083 86.3167 159.358 86.5843 159.549 86.929C159.747 87.2737 159.846 87.6807 159.846 88.15V89.217H156.084V89.8C156.084 90.2767 156.205 90.6433 156.447 90.9C156.689 91.1493 157.033 91.274 157.481 91.274C157.862 91.274 158.17 91.208 158.405 91.076C158.639 90.9367 158.782 90.7313 158.834 90.46H159.824C159.758 90.966 159.508 91.3693 159.076 91.67C158.65 91.9633 158.119 92.11 157.481 92.11ZM158.878 88.557V88.15C158.878 87.6733 158.757 87.3067 158.515 87.05C158.28 86.7933 157.935 86.665 157.481 86.665C157.033 86.665 156.689 86.7933 156.447 87.05C156.205 87.3067 156.084 87.6733 156.084 88.15V88.469H158.955L158.878 88.557ZM164.365 92.11C163.669 92.11 163.111 91.9047 162.693 91.494C162.275 91.076 162.066 90.5113 162.066 89.8V85.95H163.056V89.8C163.056 90.2547 163.174 90.6103 163.408 90.867C163.643 91.1163 163.962 91.241 164.365 91.241C164.776 91.241 165.099 91.1163 165.333 90.867C165.575 90.6103 165.696 90.2547 165.696 89.8V85.95H166.686V89.8C166.686 90.5113 166.474 91.076 166.048 91.494C165.623 91.9047 165.062 92.11 164.365 92.11ZM171.272 92.11C170.795 92.11 170.377 92.0147 170.018 91.824C169.666 91.6333 169.391 91.3657 169.193 91.021C169.002 90.669 168.907 90.262 168.907 89.8V88.15C168.907 87.6807 169.002 87.2737 169.193 86.929C169.391 86.5843 169.666 86.3167 170.018 86.126C170.377 85.9353 170.795 85.84 171.272 85.84C171.749 85.84 172.163 85.9353 172.515 86.126C172.874 86.3167 173.149 86.5843 173.34 86.929C173.538 87.2737 173.637 87.6807 173.637 88.15V89.217H169.875V89.8C169.875 90.2767 169.996 90.6433 170.238 90.9C170.48 91.1493 170.825 91.274 171.272 91.274C171.653 91.274 171.961 91.208 172.196 91.076C172.431 90.9367 172.574 90.7313 172.625 90.46H173.615C173.549 90.966 173.3 91.3693 172.867 91.67C172.442 91.9633 171.91 92.11 171.272 92.11ZM172.669 88.557V88.15C172.669 87.6733 172.548 87.3067 172.306 87.05C172.071 86.7933 171.727 86.665 171.272 86.665C170.825 86.665 170.48 86.7933 170.238 87.05C169.996 87.3067 169.875 87.6733 169.875 88.15V88.469H172.746L172.669 88.557Z" fill="white" fill-opacity="0.8"/>
<path d="M54.5 88C54.5 79.9919 60.9919 73.5 69 73.5H177C185.008 73.5 191.5 79.9919 191.5 88C191.5 96.0081 185.008 102.5 177 102.5H69C60.9919 102.5 54.5 96.0081 54.5 88Z" stroke="white" stroke-opacity="0.1"/>
<g clip-path="url(#clip2_200_48799)">
<rect width="16" height="16" transform="translate(23 158)" fill="#1A1822"/>
<path d="M31 168C32.1046 168 33 167.105 33 166C33 164.895 32.1046 164 31 164C29.8954 164 29 164.895 29 166C29 167.105 29.8954 168 31 168Z" fill="#A485FF"/>
<path d="M31 173.5C35.1421 173.5 38.5 170.142 38.5 166C38.5 161.858 35.1421 158.5 31 158.5C26.8579 158.5 23.5 161.858 23.5 166C23.5 170.142 26.8579 173.5 31 173.5Z" stroke="#A485FF"/>
</g>
<path d="M54 166C54 157.716 60.7157 151 69 151H218C226.284 151 233 157.716 233 166C233 174.284 226.284 181 218 181H69C60.7157 181 54 174.284 54 166Z" fill="white" fill-opacity="0.05"/>
<path d="M72.2571 170V161.97H74.8421C75.3408 161.97 75.7735 162.069 76.1401 162.267C76.5068 162.458 76.7891 162.729 76.9871 163.081C77.1925 163.433 77.2951 163.851 77.2951 164.335C77.2951 164.812 77.1925 165.23 76.9871 165.589C76.7891 165.941 76.5068 166.216 76.1401 166.414C75.7735 166.605 75.3408 166.7 74.8421 166.7H73.2471V170H72.2571ZM73.2471 165.809H74.8421C75.2748 165.809 75.6195 165.677 75.8761 165.413C76.1401 165.142 76.2721 164.782 76.2721 164.335C76.2721 163.88 76.1401 163.521 75.8761 163.257C75.6195 162.993 75.2748 162.861 74.8421 162.861H73.2471V165.809ZM79.3618 170V163.95H80.3298V165.105H80.5608L80.2418 165.82C80.2418 165.167 80.3812 164.676 80.6598 164.346C80.9458 164.009 81.3675 163.84 81.9248 163.84C82.5628 163.84 83.0688 164.042 83.4428 164.445C83.8242 164.841 84.0148 165.38 84.0148 166.062V166.425H83.0248V166.15C83.0248 165.673 82.9075 165.31 82.6728 165.061C82.4455 164.804 82.1192 164.676 81.6938 164.676C81.2758 164.676 80.9458 164.804 80.7038 165.061C80.4692 165.318 80.3518 165.681 80.3518 166.15V170H79.3618ZM88.3365 170.11C87.8599 170.11 87.4419 170.015 87.0825 169.824C86.7305 169.633 86.4555 169.366 86.2575 169.021C86.0669 168.669 85.9715 168.262 85.9715 167.8V166.15C85.9715 165.681 86.0669 165.274 86.2575 164.929C86.4555 164.584 86.7305 164.317 87.0825 164.126C87.4419 163.935 87.8599 163.84 88.3365 163.84C88.8132 163.84 89.2275 163.935 89.5795 164.126C89.9389 164.317 90.2139 164.584 90.4045 164.929C90.6025 165.274 90.7015 165.681 90.7015 166.15V167.217H86.9395V167.8C86.9395 168.277 87.0605 168.643 87.3025 168.9C87.5445 169.149 87.8892 169.274 88.3365 169.274C88.7179 169.274 89.0259 169.208 89.2605 169.076C89.4952 168.937 89.6382 168.731 89.6895 168.46H90.6795C90.6135 168.966 90.3642 169.369 89.9315 169.67C89.5062 169.963 88.9745 170.11 88.3365 170.11ZM89.7335 166.557V166.15C89.7335 165.673 89.6125 165.307 89.3705 165.05C89.1359 164.793 88.7912 164.665 88.3365 164.665C87.8892 164.665 87.5445 164.793 87.3025 165.05C87.0605 165.307 86.9395 165.673 86.9395 166.15V166.469H89.8105L89.7335 166.557ZM92.9442 171.98V163.95H93.9342V165.105H94.1322L93.9342 165.336C93.9342 164.874 94.0846 164.511 94.3852 164.247C94.6932 163.976 95.0966 163.84 95.5952 163.84C96.2039 163.84 96.6879 164.042 97.0472 164.445C97.4139 164.841 97.5972 165.387 97.5972 166.084V167.855C97.5972 168.317 97.5129 168.717 97.3442 169.054C97.1829 169.391 96.9519 169.652 96.6512 169.835C96.3579 170.018 96.0059 170.11 95.5952 170.11C95.1039 170.11 94.7042 169.974 94.3962 169.703C94.0882 169.432 93.9342 169.069 93.9342 168.614L94.1322 168.845H93.9122L93.9342 170.22V171.98H92.9442ZM95.2652 169.252C95.6832 169.252 96.0096 169.127 96.2442 168.878C96.4862 168.629 96.6072 168.269 96.6072 167.8V166.15C96.6072 165.681 96.4862 165.321 96.2442 165.072C96.0096 164.823 95.6832 164.698 95.2652 164.698C94.8619 164.698 94.5392 164.826 94.2972 165.083C94.0552 165.34 93.9342 165.695 93.9342 166.15V167.8C93.9342 168.255 94.0552 168.61 94.2972 168.867C94.5392 169.124 94.8619 169.252 95.2652 169.252ZM101.6 170.11C100.962 170.11 100.46 169.949 100.093 169.626C99.7263 169.296 99.5429 168.852 99.5429 168.295C99.5429 167.73 99.7263 167.287 100.093 166.964C100.46 166.641 100.955 166.48 101.578 166.48H103.448V165.875C103.448 165.501 103.334 165.215 103.107 165.017C102.887 164.812 102.572 164.709 102.161 164.709C101.802 164.709 101.501 164.786 101.259 164.94C101.017 165.087 100.878 165.288 100.841 165.545H99.8509C99.9169 165.024 100.163 164.61 100.588 164.302C101.013 163.994 101.545 163.84 102.183 163.84C102.88 163.84 103.43 164.02 103.833 164.379C104.236 164.738 104.438 165.226 104.438 165.842V170H103.47V168.845H103.305L103.47 168.68C103.47 169.12 103.298 169.468 102.953 169.725C102.616 169.982 102.165 170.11 101.6 170.11ZM101.842 169.329C102.311 169.329 102.696 169.212 102.997 168.977C103.298 168.742 103.448 168.442 103.448 168.075V167.217H101.6C101.27 167.217 101.01 167.309 100.819 167.492C100.628 167.675 100.533 167.925 100.533 168.24C100.533 168.577 100.647 168.845 100.874 169.043C101.109 169.234 101.431 169.329 101.842 169.329ZM106.945 170V163.95H107.913V165.105H108.144L107.825 165.82C107.825 165.167 107.964 164.676 108.243 164.346C108.529 164.009 108.95 163.84 109.508 163.84C110.146 163.84 110.652 164.042 111.026 164.445C111.407 164.841 111.598 165.38 111.598 166.062V166.425H110.608V166.15C110.608 165.673 110.49 165.31 110.256 165.061C110.028 164.804 109.702 164.676 109.277 164.676C108.859 164.676 108.529 164.804 108.287 165.061C108.052 165.318 107.935 165.681 107.935 166.15V170H106.945ZM113.554 170V169.098H115.699V164.852H113.829V163.95H116.689V169.098H118.724V170H113.554ZM116.084 162.861C115.842 162.861 115.652 162.799 115.512 162.674C115.373 162.549 115.303 162.381 115.303 162.168C115.303 161.948 115.373 161.776 115.512 161.651C115.652 161.519 115.842 161.453 116.084 161.453C116.326 161.453 116.517 161.519 116.656 161.651C116.796 161.776 116.865 161.948 116.865 162.168C116.865 162.381 116.796 162.549 116.656 162.674C116.517 162.799 116.326 162.861 116.084 162.861ZM120.527 170V163.95H121.517V165.105H121.726L121.517 165.336C121.517 164.859 121.66 164.493 121.946 164.236C122.232 163.972 122.628 163.84 123.134 163.84C123.743 163.84 124.227 164.027 124.586 164.401C124.945 164.775 125.125 165.285 125.125 165.93V170H124.135V166.04C124.135 165.607 124.018 165.277 123.783 165.05C123.556 164.815 123.244 164.698 122.848 164.698C122.437 164.698 122.111 164.823 121.869 165.072C121.634 165.321 121.517 165.681 121.517 166.15V170H120.527ZM128.182 171.98V171.078H130.107C130.415 171.078 130.638 171.008 130.778 170.869C130.924 170.73 130.998 170.513 130.998 170.22V169.45L131.02 168.35H130.822L131.009 168.185C131.009 168.625 130.862 168.973 130.569 169.23C130.275 169.487 129.883 169.615 129.392 169.615C128.768 169.615 128.277 169.413 127.918 169.01C127.558 168.599 127.379 168.049 127.379 167.36V166.084C127.379 165.395 127.558 164.848 127.918 164.445C128.277 164.042 128.768 163.84 129.392 163.84C129.883 163.84 130.275 163.968 130.569 164.225C130.862 164.482 131.009 164.83 131.009 165.27L130.822 165.105H131.009V163.95H131.988V170.22C131.988 170.763 131.819 171.192 131.482 171.507C131.152 171.822 130.69 171.98 130.096 171.98H128.182ZM129.689 168.757C130.099 168.757 130.422 168.629 130.657 168.372C130.891 168.115 131.009 167.76 131.009 167.305V166.15C131.009 165.695 130.891 165.34 130.657 165.083C130.422 164.826 130.099 164.698 129.689 164.698C129.271 164.698 128.944 164.823 128.71 165.072C128.482 165.321 128.369 165.681 128.369 166.15V167.305C128.369 167.774 128.482 168.134 128.71 168.383C128.944 168.632 129.271 168.757 129.689 168.757ZM141.302 170V161.97H145.922V162.872H142.281V165.358H145.537V166.249H142.281V169.098H145.922V170H141.302ZM148.11 170V163.95H149.1V165.105H149.309L149.1 165.336C149.1 164.859 149.243 164.493 149.529 164.236C149.815 163.972 150.211 163.84 150.717 163.84C151.326 163.84 151.81 164.027 152.169 164.401C152.528 164.775 152.708 165.285 152.708 165.93V170H151.718V166.04C151.718 165.607 151.601 165.277 151.366 165.05C151.139 164.815 150.827 164.698 150.431 164.698C150.02 164.698 149.694 164.823 149.452 165.072C149.217 165.321 149.1 165.681 149.1 166.15V170H148.11ZM156.623 170L154.599 163.95H155.611L156.953 168.02C157.033 168.262 157.107 168.497 157.173 168.724C157.239 168.944 157.286 169.116 157.316 169.241C157.352 169.116 157.404 168.944 157.47 168.724C157.536 168.497 157.605 168.262 157.679 168.02L158.988 163.95H159.989L157.965 170H156.623ZM161.824 170V169.098H163.969V164.852H162.099V163.95H164.959V169.098H166.994V170H161.824ZM164.354 162.861C164.112 162.861 163.922 162.799 163.782 162.674C163.643 162.549 163.573 162.381 163.573 162.168C163.573 161.948 163.643 161.776 163.782 161.651C163.922 161.519 164.112 161.453 164.354 161.453C164.596 161.453 164.787 161.519 164.926 161.651C165.066 161.776 165.135 161.948 165.135 162.168C165.135 162.381 165.066 162.549 164.926 162.674C164.787 162.799 164.596 162.861 164.354 162.861ZM171.085 170.088C170.601 170.088 170.183 169.996 169.831 169.813C169.479 169.63 169.204 169.366 169.006 169.021C168.815 168.669 168.72 168.255 168.72 167.778V166.172C168.72 165.688 168.815 165.274 169.006 164.929C169.204 164.584 169.479 164.32 169.831 164.137C170.183 163.954 170.601 163.862 171.085 163.862C171.569 163.862 171.987 163.954 172.339 164.137C172.691 164.32 172.962 164.584 173.153 164.929C173.351 165.274 173.45 165.684 173.45 166.161V167.778C173.45 168.255 173.351 168.669 173.153 169.021C172.962 169.366 172.691 169.63 172.339 169.813C171.987 169.996 171.569 170.088 171.085 170.088ZM171.085 169.208C171.518 169.208 171.855 169.087 172.097 168.845C172.339 168.603 172.46 168.247 172.46 167.778V166.172C172.46 165.703 172.339 165.347 172.097 165.105C171.855 164.863 171.518 164.742 171.085 164.742C170.66 164.742 170.322 164.863 170.073 165.105C169.831 165.347 169.71 165.703 169.71 166.172V167.778C169.71 168.247 169.831 168.603 170.073 168.845C170.322 169.087 170.66 169.208 171.085 169.208ZM175.902 170V163.95H176.87V165.105H177.101L176.782 165.82C176.782 165.167 176.921 164.676 177.2 164.346C177.486 164.009 177.907 163.84 178.465 163.84C179.103 163.84 179.609 164.042 179.983 164.445C180.364 164.841 180.555 165.38 180.555 166.062V166.425H179.565V166.15C179.565 165.673 179.447 165.31 179.213 165.061C178.985 164.804 178.659 164.676 178.234 164.676C177.816 164.676 177.486 164.804 177.244 165.061C177.009 165.318 176.892 165.681 176.892 166.15V170H175.902ZM182.588 170V163.95H183.578V165.105H183.787L183.578 165.336C183.578 164.859 183.721 164.493 184.007 164.236C184.293 163.972 184.689 163.84 185.195 163.84C185.804 163.84 186.288 164.027 186.647 164.401C187.007 164.775 187.186 165.285 187.186 165.93V170H186.196V166.04C186.196 165.607 186.079 165.277 185.844 165.05C185.617 164.815 185.305 164.698 184.909 164.698C184.499 164.698 184.172 164.823 183.93 165.072C183.696 165.321 183.578 165.681 183.578 166.15V170H182.588ZM189.198 170V163.95H190.067V164.676H190.265L190.111 164.94C190.111 164.603 190.199 164.335 190.375 164.137C190.558 163.939 190.804 163.84 191.112 163.84C191.449 163.84 191.71 163.965 191.893 164.214C192.076 164.463 192.168 164.815 192.168 165.27L191.871 164.676H192.333L192.124 164.94C192.124 164.603 192.216 164.335 192.399 164.137C192.59 163.939 192.839 163.84 193.147 163.84C193.528 163.84 193.822 163.983 194.027 164.269C194.24 164.555 194.346 164.933 194.346 165.402V170H193.433V165.391C193.433 165.142 193.378 164.947 193.268 164.808C193.165 164.669 193.011 164.599 192.806 164.599C192.608 164.599 192.45 164.669 192.333 164.808C192.223 164.94 192.168 165.131 192.168 165.38V170H191.376V165.391C191.376 165.134 191.317 164.94 191.2 164.808C191.09 164.669 190.932 164.599 190.727 164.599C190.522 164.599 190.368 164.669 190.265 164.808C190.162 164.94 190.111 165.131 190.111 165.38V170H189.198ZM198.668 170.11C198.191 170.11 197.773 170.015 197.414 169.824C197.062 169.633 196.787 169.366 196.589 169.021C196.398 168.669 196.303 168.262 196.303 167.8V166.15C196.303 165.681 196.398 165.274 196.589 164.929C196.787 164.584 197.062 164.317 197.414 164.126C197.773 163.935 198.191 163.84 198.668 163.84C199.144 163.84 199.559 163.935 199.911 164.126C200.27 164.317 200.545 164.584 200.736 164.929C200.934 165.274 201.033 165.681 201.033 166.15V167.217H197.271V167.8C197.271 168.277 197.392 168.643 197.634 168.9C197.876 169.149 198.22 169.274 198.668 169.274C199.049 169.274 199.357 169.208 199.592 169.076C199.826 168.937 199.969 168.731 200.021 168.46H201.011C200.945 168.966 200.695 169.369 200.263 169.67C199.837 169.963 199.306 170.11 198.668 170.11ZM200.065 166.557V166.15C200.065 165.673 199.944 165.307 199.702 165.05C199.467 164.793 199.122 164.665 198.668 164.665C198.22 164.665 197.876 164.793 197.634 165.05C197.392 165.307 197.271 165.673 197.271 166.15V166.469H200.142L200.065 166.557ZM203.275 170V163.95H204.265V165.105H204.474L204.265 165.336C204.265 164.859 204.408 164.493 204.694 164.236C204.98 163.972 205.376 163.84 205.882 163.84C206.491 163.84 206.975 164.027 207.334 164.401C207.694 164.775 207.873 165.285 207.873 165.93V170H206.883V166.04C206.883 165.607 206.766 165.277 206.531 165.05C206.304 164.815 205.992 164.698 205.596 164.698C205.186 164.698 204.859 164.823 204.617 165.072C204.383 165.321 204.265 165.681 204.265 166.15V170H203.275ZM213.119 170C212.599 170 212.192 169.861 211.898 169.582C211.612 169.303 211.469 168.911 211.469 168.405V164.852H209.764V163.95H211.469V162.245H212.459V163.95H214.879V164.852H212.459V168.405C212.459 168.867 212.679 169.098 213.119 169.098H214.769V170H213.119Z" fill="white" fill-opacity="0.8"/>
<path d="M54.5 166C54.5 157.992 60.9919 151.5 69 151.5H218C226.008 151.5 232.5 157.992 232.5 166C232.5 174.008 226.008 180.5 218 180.5H69C60.9919 180.5 54.5 174.008 54.5 166Z" stroke="white" stroke-opacity="0.1"/>
<g clip-path="url(#clip3_200_48799)">
<rect width="16" height="16" transform="translate(23 236)" fill="#1A1822"/>
<path d="M31 251.5C35.1421 251.5 38.5 248.142 38.5 244C38.5 239.858 35.1421 236.5 31 236.5C26.8579 236.5 23.5 239.858 23.5 244C23.5 248.142 26.8579 251.5 31 251.5Z" fill="#CEBDFF" fill-opacity="0.21" stroke="#A485FF"/>
<path d="M33.8 242L30.3714 246L29 244.4" stroke="#A485FF" stroke-linecap="round" stroke-linejoin="round"/>
</g>
<path d="M54 244C54 235.716 60.7157 229 69 229H192C200.284 229 207 235.716 207 244C207 252.284 200.284 259 192 259H69C60.7157 259 54 252.284 54 244Z" fill="url(#paint1_linear_200_48799)"/>
<path d="M75.3805 248.11C74.8525 248.11 74.3979 248.022 74.0165 247.846C73.6425 247.67 73.3529 247.417 73.1475 247.087C72.9422 246.757 72.8359 246.365 72.8285 245.91H73.8185C73.8185 246.313 73.9542 246.632 74.2255 246.867C74.5042 247.102 74.8892 247.219 75.3805 247.219C75.8425 247.219 76.2019 247.105 76.4585 246.878C76.7225 246.651 76.8545 246.335 76.8545 245.932C76.8545 245.609 76.7665 245.327 76.5905 245.085C76.4219 244.843 76.1762 244.674 75.8535 244.579L74.7645 244.238C74.2145 244.069 73.7892 243.787 73.4885 243.391C73.1952 242.995 73.0485 242.529 73.0485 241.994C73.0485 241.561 73.1439 241.187 73.3345 240.872C73.5325 240.549 73.8075 240.3 74.1595 240.124C74.5115 239.941 74.9259 239.849 75.4025 239.849C76.1065 239.849 76.6712 240.047 77.0965 240.443C77.5219 240.832 77.7382 241.352 77.7455 242.005H76.7555C76.7555 241.609 76.6345 241.301 76.3925 241.081C76.1579 240.854 75.8242 240.74 75.3915 240.74C74.9662 240.74 74.6325 240.843 74.3905 241.048C74.1559 241.253 74.0385 241.539 74.0385 241.906C74.0385 242.236 74.1265 242.522 74.3025 242.764C74.4785 243.006 74.7315 243.178 75.0615 243.281L76.1615 243.633C76.6969 243.802 77.1112 244.088 77.4045 244.491C77.6979 244.894 77.8445 245.367 77.8445 245.91C77.8445 246.35 77.7419 246.735 77.5365 247.065C77.3312 247.395 77.0415 247.652 76.6675 247.835C76.3009 248.018 75.8719 248.11 75.3805 248.11ZM79.8672 248V247.098H82.0122V242.852H80.1422V241.95H83.0022V247.098H85.0372V248H79.8672ZM82.3972 240.861C82.1552 240.861 81.9646 240.799 81.8252 240.674C81.6859 240.549 81.6162 240.381 81.6162 240.168C81.6162 239.948 81.6859 239.776 81.8252 239.651C81.9646 239.519 82.1552 239.453 82.3972 239.453C82.6392 239.453 82.8299 239.519 82.9692 239.651C83.1086 239.776 83.1782 239.948 83.1782 240.168C83.1782 240.381 83.1086 240.549 82.9692 240.674C82.8299 240.799 82.6392 240.861 82.3972 240.861ZM89.7879 248C89.2673 248 88.8603 247.861 88.5669 247.582C88.2809 247.303 88.1379 246.911 88.1379 246.405V242.852H86.4329V241.95H88.1379V240.245H89.1279V241.95H91.5479V242.852H89.1279V246.405C89.1279 246.867 89.3479 247.098 89.7879 247.098H91.4379V248H89.7879ZM96.0236 248.11C95.547 248.11 95.129 248.015 94.7696 247.824C94.4176 247.633 94.1426 247.366 93.9446 247.021C93.754 246.669 93.6586 246.262 93.6586 245.8V244.15C93.6586 243.681 93.754 243.274 93.9446 242.929C94.1426 242.584 94.4176 242.317 94.7696 242.126C95.129 241.935 95.547 241.84 96.0236 241.84C96.5003 241.84 96.9146 241.935 97.2666 242.126C97.626 242.317 97.901 242.584 98.0916 242.929C98.2896 243.274 98.3886 243.681 98.3886 244.15V245.217H94.6266V245.8C94.6266 246.277 94.7476 246.643 94.9896 246.9C95.2316 247.149 95.5763 247.274 96.0236 247.274C96.405 247.274 96.713 247.208 96.9476 247.076C97.1823 246.937 97.3253 246.731 97.3766 246.46H98.3666C98.3006 246.966 98.0513 247.369 97.6186 247.67C97.1933 247.963 96.6616 248.11 96.0236 248.11ZM97.4206 244.557V244.15C97.4206 243.673 97.2996 243.307 97.0576 243.05C96.823 242.793 96.4783 242.665 96.0236 242.665C95.5763 242.665 95.2316 242.793 94.9896 243.05C94.7476 243.307 94.6266 243.673 94.6266 244.15V244.469H97.4976L97.4206 244.557ZM107.45 248V247.098H109.595V242.852H107.725V241.95H110.585V247.098H112.62V248H107.45ZM109.98 240.861C109.738 240.861 109.547 240.799 109.408 240.674C109.269 240.549 109.199 240.381 109.199 240.168C109.199 239.948 109.269 239.776 109.408 239.651C109.547 239.519 109.738 239.453 109.98 239.453C110.222 239.453 110.413 239.519 110.552 239.651C110.691 239.776 110.761 239.948 110.761 240.168C110.761 240.381 110.691 240.549 110.552 240.674C110.413 240.799 110.222 240.861 109.98 240.861ZM116.524 248.088C116.113 248.088 115.754 248.026 115.446 247.901C115.145 247.769 114.903 247.586 114.72 247.351C114.544 247.116 114.437 246.838 114.401 246.515H115.391C115.435 246.728 115.552 246.896 115.743 247.021C115.941 247.146 116.201 247.208 116.524 247.208H116.986C117.374 247.208 117.664 247.131 117.855 246.977C118.045 246.816 118.141 246.603 118.141 246.339C118.141 246.082 118.053 245.881 117.877 245.734C117.708 245.58 117.455 245.477 117.118 245.426L116.304 245.294C115.71 245.191 115.266 245.008 114.973 244.744C114.687 244.473 114.544 244.08 114.544 243.567C114.544 243.024 114.716 242.606 115.061 242.313C115.405 242.012 115.922 241.862 116.612 241.862H117.03C117.609 241.862 118.075 241.998 118.427 242.269C118.779 242.54 118.991 242.907 119.065 243.369H118.075C118.031 243.178 117.921 243.028 117.745 242.918C117.569 242.801 117.33 242.742 117.03 242.742H116.612C116.238 242.742 115.963 242.812 115.787 242.951C115.618 243.09 115.534 243.299 115.534 243.578C115.534 243.827 115.607 244.011 115.754 244.128C115.9 244.245 116.131 244.33 116.447 244.381L117.261 244.513C117.913 244.616 118.386 244.806 118.68 245.085C118.98 245.364 119.131 245.767 119.131 246.295C119.131 246.852 118.951 247.292 118.592 247.615C118.24 247.93 117.704 248.088 116.986 248.088H116.524ZM128.214 249.98V241.95H129.204V243.105H129.402L129.204 243.336C129.204 242.874 129.354 242.511 129.655 242.247C129.963 241.976 130.366 241.84 130.865 241.84C131.474 241.84 131.958 242.042 132.317 242.445C132.684 242.841 132.867 243.387 132.867 244.084V245.855C132.867 246.317 132.783 246.717 132.614 247.054C132.453 247.391 132.222 247.652 131.921 247.835C131.628 248.018 131.276 248.11 130.865 248.11C130.374 248.11 129.974 247.974 129.666 247.703C129.358 247.432 129.204 247.069 129.204 246.614L129.402 246.845H129.182L129.204 248.22V249.98H128.214ZM130.535 247.252C130.953 247.252 131.279 247.127 131.514 246.878C131.756 246.629 131.877 246.269 131.877 245.8V244.15C131.877 243.681 131.756 243.321 131.514 243.072C131.279 242.823 130.953 242.698 130.535 242.698C130.132 242.698 129.809 242.826 129.567 243.083C129.325 243.34 129.204 243.695 129.204 244.15V245.8C129.204 246.255 129.325 246.61 129.567 246.867C129.809 247.124 130.132 247.252 130.535 247.252ZM137.387 248.11C136.69 248.11 136.133 247.905 135.715 247.494C135.297 247.076 135.088 246.511 135.088 245.8V241.95H136.078V245.8C136.078 246.255 136.195 246.61 136.43 246.867C136.665 247.116 136.984 247.241 137.387 247.241C137.798 247.241 138.12 247.116 138.355 246.867C138.597 246.61 138.718 246.255 138.718 245.8V241.95H139.708V245.8C139.708 246.511 139.495 247.076 139.07 247.494C138.645 247.905 138.084 248.11 137.387 248.11ZM144.646 248.11C144.147 248.11 143.747 247.978 143.447 247.714C143.146 247.443 142.996 247.076 142.996 246.614L143.194 246.845H142.996V248H142.006V239.97H142.996V241.73L142.974 243.105H143.194L142.996 243.336C142.996 242.881 143.146 242.518 143.447 242.247C143.755 241.976 144.154 241.84 144.646 241.84C145.254 241.84 145.742 242.042 146.109 242.445C146.475 242.848 146.659 243.398 146.659 244.095V245.866C146.659 246.555 146.475 247.102 146.109 247.505C145.742 247.908 145.254 248.11 144.646 248.11ZM144.316 247.252C144.734 247.252 145.064 247.127 145.306 246.878C145.548 246.629 145.669 246.269 145.669 245.8V244.15C145.669 243.681 145.548 243.321 145.306 243.072C145.064 242.823 144.734 242.698 144.316 242.698C143.912 242.698 143.59 242.826 143.348 243.083C143.113 243.34 142.996 243.695 142.996 244.15V245.8C142.996 246.255 143.113 246.61 143.348 246.867C143.59 247.124 143.912 247.252 144.316 247.252ZM152.014 248C151.662 248 151.354 247.93 151.09 247.791C150.826 247.652 150.621 247.454 150.474 247.197C150.328 246.94 150.254 246.64 150.254 246.295V240.872H148.219V239.97H151.244V246.295C151.244 246.544 151.314 246.742 151.453 246.889C151.593 247.028 151.78 247.098 152.014 247.098H153.939V248H152.014ZM155.72 248V247.098H157.865V242.852H155.995V241.95H158.855V247.098H160.89V248H155.72ZM158.25 240.861C158.008 240.861 157.817 240.799 157.678 240.674C157.539 240.549 157.469 240.381 157.469 240.168C157.469 239.948 157.539 239.776 157.678 239.651C157.817 239.519 158.008 239.453 158.25 239.453C158.492 239.453 158.683 239.519 158.822 239.651C158.961 239.776 159.031 239.948 159.031 240.168C159.031 240.381 158.961 240.549 158.822 240.674C158.683 240.799 158.492 240.861 158.25 240.861ZM164.794 248.088C164.383 248.088 164.024 248.026 163.716 247.901C163.415 247.769 163.173 247.586 162.99 247.351C162.814 247.116 162.707 246.838 162.671 246.515H163.661C163.705 246.728 163.822 246.896 164.013 247.021C164.211 247.146 164.471 247.208 164.794 247.208H165.256C165.644 247.208 165.934 247.131 166.125 246.977C166.315 246.816 166.411 246.603 166.411 246.339C166.411 246.082 166.323 245.881 166.147 245.734C165.978 245.58 165.725 245.477 165.388 245.426L164.574 245.294C163.98 245.191 163.536 245.008 163.243 244.744C162.957 244.473 162.814 244.08 162.814 243.567C162.814 243.024 162.986 242.606 163.331 242.313C163.675 242.012 164.192 241.862 164.882 241.862H165.3C165.879 241.862 166.345 241.998 166.697 242.269C167.049 242.54 167.261 242.907 167.335 243.369H166.345C166.301 243.178 166.191 243.028 166.015 242.918C165.839 242.801 165.6 242.742 165.3 242.742H164.882C164.508 242.742 164.233 242.812 164.057 242.951C163.888 243.09 163.804 243.299 163.804 243.578C163.804 243.827 163.877 244.011 164.024 244.128C164.17 244.245 164.401 244.33 164.717 244.381L165.531 244.513C166.183 244.616 166.656 244.806 166.95 245.085C167.25 245.364 167.401 245.767 167.401 246.295C167.401 246.852 167.221 247.292 166.862 247.615C166.51 247.93 165.974 248.088 165.256 248.088H164.794ZM169.588 248V239.97H170.578V241.95V243.105H170.787L170.578 243.336C170.578 242.859 170.721 242.493 171.007 242.236C171.293 241.972 171.689 241.84 172.195 241.84C172.804 241.84 173.288 242.027 173.647 242.401C174.007 242.775 174.186 243.285 174.186 243.93V248H173.196V244.04C173.196 243.607 173.079 243.274 172.844 243.039C172.617 242.797 172.305 242.676 171.909 242.676C171.499 242.676 171.172 242.804 170.93 243.061C170.696 243.318 170.578 243.681 170.578 244.15V248H169.588ZM178.772 248.11C178.295 248.11 177.877 248.015 177.518 247.824C177.166 247.633 176.891 247.366 176.693 247.021C176.502 246.669 176.407 246.262 176.407 245.8V244.15C176.407 243.681 176.502 243.274 176.693 242.929C176.891 242.584 177.166 242.317 177.518 242.126C177.877 241.935 178.295 241.84 178.772 241.84C179.249 241.84 179.663 241.935 180.015 242.126C180.374 242.317 180.649 242.584 180.84 242.929C181.038 243.274 181.137 243.681 181.137 244.15V245.217H177.375V245.8C177.375 246.277 177.496 246.643 177.738 246.9C177.98 247.149 178.325 247.274 178.772 247.274C179.153 247.274 179.461 247.208 179.696 247.076C179.931 246.937 180.074 246.731 180.125 246.46H181.115C181.049 246.966 180.8 247.369 180.367 247.67C179.942 247.963 179.41 248.11 178.772 248.11ZM180.169 244.557V244.15C180.169 243.673 180.048 243.307 179.806 243.05C179.571 242.793 179.227 242.665 178.772 242.665C178.325 242.665 177.98 242.793 177.738 243.05C177.496 243.307 177.375 243.673 177.375 244.15V244.469H180.246L180.169 244.557ZM185.316 248.11C184.714 248.11 184.227 247.908 183.853 247.505C183.486 247.102 183.303 246.555 183.303 245.866V244.095C183.303 243.398 183.486 242.848 183.853 242.445C184.219 242.042 184.707 241.84 185.316 241.84C185.814 241.84 186.214 241.976 186.515 242.247C186.815 242.518 186.966 242.881 186.966 243.336L186.768 243.105H186.988L186.966 241.73V239.97H187.956V248H186.966V246.845H186.768L186.966 246.614C186.966 247.076 186.815 247.443 186.515 247.714C186.214 247.978 185.814 248.11 185.316 248.11ZM185.646 247.252C186.056 247.252 186.379 247.124 186.614 246.867C186.848 246.61 186.966 246.255 186.966 245.8V244.15C186.966 243.695 186.848 243.34 186.614 243.083C186.379 242.826 186.056 242.698 185.646 242.698C185.228 242.698 184.898 242.823 184.656 243.072C184.414 243.321 184.293 243.681 184.293 244.15V245.8C184.293 246.269 184.414 246.629 184.656 246.878C184.898 247.127 185.228 247.252 185.646 247.252Z" fill="white" fill-opacity="0.8"/>
<path d="M54.5 244C54.5 235.992 60.9919 229.5 69 229.5H192C200.008 229.5 206.5 235.992 206.5 244C206.5 252.008 200.008 258.5 192 258.5H69C60.9919 258.5 54.5 252.008 54.5 244Z" stroke="#A485FF" stroke-opacity="0.1"/>
<g clip-path="url(#clip4_200_48799)">
<rect width="16" height="16" transform="translate(23 314)" fill="#1A1822"/>
<path d="M31 324C32.1046 324 33 323.105 33 322C33 320.895 32.1046 320 31 320C29.8954 320 29 320.895 29 322C29 323.105 29.8954 324 31 324Z" fill="#A485FF"/>
<path d="M31 329.5C35.1421 329.5 38.5 326.142 38.5 322C38.5 317.858 35.1421 314.5 31 314.5C26.8579 314.5 23.5 317.858 23.5 322C23.5 326.142 26.8579 329.5 31 329.5Z" stroke="#A485FF"/>
</g>
<path d="M54 322C54 313.716 60.7157 307 69 307H184C192.284 307 199 313.716 199 322C199 330.284 192.284 337 184 337H69C60.7157 337 54 330.284 54 322Z" fill="white" fill-opacity="0.05"/>
<path d="M74.8284 326.11C74.3444 326.11 73.9227 326.018 73.5634 325.835C73.2114 325.652 72.9364 325.388 72.7384 325.043C72.5477 324.691 72.4524 324.277 72.4524 323.8V320.17C72.4524 319.686 72.5477 319.272 72.7384 318.927C72.9364 318.582 73.2114 318.318 73.5634 318.135C73.9227 317.952 74.3444 317.86 74.8284 317.86C75.3124 317.86 75.7304 317.955 76.0824 318.146C76.4344 318.329 76.7057 318.593 76.8964 318.938C77.087 319.283 77.1824 319.693 77.1824 320.17H76.1924C76.1924 319.715 76.0714 319.367 75.8294 319.125C75.5947 318.876 75.261 318.751 74.8284 318.751C74.3957 318.751 74.0547 318.872 73.8054 319.114C73.5634 319.356 73.4424 319.704 73.4424 320.159V323.8C73.4424 324.255 73.5634 324.607 73.8054 324.856C74.0547 325.098 74.3957 325.219 74.8284 325.219C75.261 325.219 75.5947 325.098 75.8294 324.856C76.0714 324.607 76.1924 324.255 76.1924 323.8H77.1824C77.1824 324.269 77.087 324.68 76.8964 325.032C76.7057 325.377 76.4344 325.644 76.0824 325.835C75.7304 326.018 75.3124 326.11 74.8284 326.11ZM79.6011 326V319.95H80.5691V321.105H80.8001L80.4811 321.82C80.4811 321.167 80.6204 320.676 80.8991 320.346C81.1851 320.009 81.6067 319.84 82.1641 319.84C82.8021 319.84 83.3081 320.042 83.6821 320.445C84.0634 320.841 84.2541 321.38 84.2541 322.062V322.425H83.2641V322.15C83.2641 321.673 83.1467 321.31 82.9121 321.061C82.6847 320.804 82.3584 320.676 81.9331 320.676C81.5151 320.676 81.1851 320.804 80.9431 321.061C80.7084 321.318 80.5911 321.681 80.5911 322.15V326H79.6011ZM88.5758 326.11C88.0991 326.11 87.6811 326.015 87.3218 325.824C86.9698 325.633 86.6948 325.366 86.4968 325.021C86.3061 324.669 86.2108 324.262 86.2108 323.8V322.15C86.2108 321.681 86.3061 321.274 86.4968 320.929C86.6948 320.584 86.9698 320.317 87.3218 320.126C87.6811 319.935 88.0991 319.84 88.5758 319.84C89.0524 319.84 89.4668 319.935 89.8188 320.126C90.1781 320.317 90.4531 320.584 90.6438 320.929C90.8418 321.274 90.9408 321.681 90.9408 322.15V323.217H87.1788V323.8C87.1788 324.277 87.2998 324.643 87.5418 324.9C87.7838 325.149 88.1284 325.274 88.5758 325.274C88.9571 325.274 89.2651 325.208 89.4998 325.076C89.7344 324.937 89.8774 324.731 89.9288 324.46H90.9188C90.8528 324.966 90.6034 325.369 90.1708 325.67C89.7454 325.963 89.2138 326.11 88.5758 326.11ZM89.9728 322.557V322.15C89.9728 321.673 89.8518 321.307 89.6098 321.05C89.3751 320.793 89.0304 320.665 88.5758 320.665C88.1284 320.665 87.7838 320.793 87.5418 321.05C87.2998 321.307 87.1788 321.673 87.1788 322.15V322.469H90.0498L89.9728 322.557ZM94.9435 326.11C94.3055 326.11 93.8032 325.949 93.4365 325.626C93.0698 325.296 92.8865 324.852 92.8865 324.295C92.8865 323.73 93.0698 323.287 93.4365 322.964C93.8032 322.641 94.2982 322.48 94.9215 322.48H96.7915V321.875C96.7915 321.501 96.6778 321.215 96.4505 321.017C96.2305 320.812 95.9152 320.709 95.5045 320.709C95.1452 320.709 94.8445 320.786 94.6025 320.94C94.3605 321.087 94.2212 321.288 94.1845 321.545H93.1945C93.2605 321.024 93.5062 320.61 93.9315 320.302C94.3568 319.994 94.8885 319.84 95.5265 319.84C96.2232 319.84 96.7732 320.02 97.1765 320.379C97.5798 320.738 97.7815 321.226 97.7815 321.842V326H96.8135V324.845H96.6485L96.8135 324.68C96.8135 325.12 96.6412 325.468 96.2965 325.725C95.9592 325.982 95.5082 326.11 94.9435 326.11ZM95.1855 325.329C95.6548 325.329 96.0398 325.212 96.3405 324.977C96.6412 324.742 96.7915 324.442 96.7915 324.075V323.217H94.9435C94.6135 323.217 94.3532 323.309 94.1625 323.492C93.9718 323.675 93.8765 323.925 93.8765 324.24C93.8765 324.577 93.9902 324.845 94.2175 325.043C94.4522 325.234 94.7748 325.329 95.1855 325.329ZM103.027 326C102.507 326 102.1 325.861 101.806 325.582C101.52 325.303 101.377 324.911 101.377 324.405V320.852H99.6722V319.95H101.377V318.245H102.367V319.95H104.787V320.852H102.367V324.405C102.367 324.867 102.587 325.098 103.027 325.098H104.677V326H103.027ZM106.898 326V325.098H109.043V320.852H107.173V319.95H110.033V325.098H112.068V326H106.898ZM109.428 318.861C109.186 318.861 108.995 318.799 108.856 318.674C108.717 318.549 108.647 318.381 108.647 318.168C108.647 317.948 108.717 317.776 108.856 317.651C108.995 317.519 109.186 317.453 109.428 317.453C109.67 317.453 109.861 317.519 110 317.651C110.139 317.776 110.209 317.948 110.209 318.168C110.209 318.381 110.139 318.549 110 318.674C109.861 318.799 109.67 318.861 109.428 318.861ZM113.871 326V319.95H114.861V321.105H115.07L114.861 321.336C114.861 320.859 115.004 320.493 115.29 320.236C115.576 319.972 115.972 319.84 116.478 319.84C117.086 319.84 117.57 320.027 117.93 320.401C118.289 320.775 118.469 321.285 118.469 321.93V326H117.479V322.04C117.479 321.607 117.361 321.277 117.127 321.05C116.899 320.815 116.588 320.698 116.192 320.698C115.781 320.698 115.455 320.823 115.213 321.072C114.978 321.321 114.861 321.681 114.861 322.15V326H113.871ZM121.525 327.98V327.078H123.45C123.758 327.078 123.982 327.008 124.121 326.869C124.268 326.73 124.341 326.513 124.341 326.22V325.45L124.363 324.35H124.165L124.352 324.185C124.352 324.625 124.206 324.973 123.912 325.23C123.619 325.487 123.227 325.615 122.735 325.615C122.112 325.615 121.621 325.413 121.261 325.01C120.902 324.599 120.722 324.049 120.722 323.36V322.084C120.722 321.395 120.902 320.848 121.261 320.445C121.621 320.042 122.112 319.84 122.735 319.84C123.227 319.84 123.619 319.968 123.912 320.225C124.206 320.482 124.352 320.83 124.352 321.27L124.165 321.105H124.352V319.95H125.331V326.22C125.331 326.763 125.163 327.192 124.825 327.507C124.495 327.822 124.033 327.98 123.439 327.98H121.525ZM123.032 324.757C123.443 324.757 123.766 324.629 124 324.372C124.235 324.115 124.352 323.76 124.352 323.305V322.15C124.352 321.695 124.235 321.34 124 321.083C123.766 320.826 123.443 320.698 123.032 320.698C122.614 320.698 122.288 320.823 122.053 321.072C121.826 321.321 121.712 321.681 121.712 322.15V323.305C121.712 323.774 121.826 324.134 122.053 324.383C122.288 324.632 122.614 324.757 123.032 324.757ZM137.671 326C137.319 326 137.011 325.93 136.747 325.791C136.483 325.652 136.277 325.454 136.131 325.197C135.984 324.94 135.911 324.64 135.911 324.295V318.872H133.876V317.97H136.901V324.295C136.901 324.544 136.97 324.742 137.11 324.889C137.249 325.028 137.436 325.098 137.671 325.098H139.596V326H137.671ZM141.376 326V325.098H143.521V320.852H141.651V319.95H144.511V325.098H146.546V326H141.376ZM143.906 318.861C143.664 318.861 143.474 318.799 143.334 318.674C143.195 318.549 143.125 318.381 143.125 318.168C143.125 317.948 143.195 317.776 143.334 317.651C143.474 317.519 143.664 317.453 143.906 317.453C144.148 317.453 144.339 317.519 144.478 317.651C144.618 317.776 144.687 317.948 144.687 318.168C144.687 318.381 144.618 318.549 144.478 318.674C144.339 318.799 144.148 318.861 143.906 318.861ZM148.349 326V319.95H149.339V321.105H149.548L149.339 321.336C149.339 320.859 149.482 320.493 149.768 320.236C150.054 319.972 150.45 319.84 150.956 319.84C151.565 319.84 152.049 320.027 152.408 320.401C152.767 320.775 152.947 321.285 152.947 321.93V326H151.957V322.04C151.957 321.607 151.84 321.277 151.605 321.05C151.378 320.815 151.066 320.698 150.67 320.698C150.259 320.698 149.933 320.823 149.691 321.072C149.456 321.321 149.339 321.681 149.339 322.15V326H148.349ZM155.278 326V317.97H156.268V322.447H157.434L159.194 319.95H160.327L158.292 322.832L160.36 326H159.205L157.445 323.305H156.268V326H155.278ZM166.142 326.11C165.863 326.11 165.643 326.029 165.482 325.868C165.313 325.707 165.229 325.49 165.229 325.219C165.229 324.933 165.313 324.706 165.482 324.537C165.643 324.368 165.863 324.284 166.142 324.284C166.421 324.284 166.644 324.368 166.813 324.537C166.974 324.706 167.055 324.933 167.055 325.219C167.055 325.49 166.974 325.707 166.813 325.868C166.644 326.029 166.421 326.11 166.142 326.11ZM171.631 326.11C171.352 326.11 171.132 326.029 170.971 325.868C170.802 325.707 170.718 325.49 170.718 325.219C170.718 324.933 170.802 324.706 170.971 324.537C171.132 324.368 171.352 324.284 171.631 324.284C171.91 324.284 172.133 324.368 172.302 324.537C172.463 324.706 172.544 324.933 172.544 325.219C172.544 325.49 172.463 325.707 172.302 325.868C172.133 326.029 171.91 326.11 171.631 326.11ZM177.12 326.11C176.841 326.11 176.618 326.029 176.449 325.868C176.288 325.707 176.207 325.49 176.207 325.219C176.207 324.933 176.288 324.706 176.449 324.537C176.618 324.368 176.841 324.284 177.12 324.284C177.399 324.284 177.619 324.368 177.78 324.537C177.949 324.706 178.033 324.933 178.033 325.219C178.033 325.49 177.949 325.707 177.78 325.868C177.619 326.029 177.399 326.11 177.12 326.11Z" fill="white" fill-opacity="0.8"/>
<path d="M54.5 322C54.5 313.992 60.9919 307.5 69 307.5H184C192.008 307.5 198.5 313.992 198.5 322C198.5 330.008 192.008 336.5 184 336.5H69C60.9919 336.5 54.5 330.008 54.5 322Z" stroke="white" stroke-opacity="0.1"/>
</g>
<defs>
<linearGradient id="paint0_linear_200_48799" x1="149.5" y1="-21" x2="149.5" y2="379" gradientUnits="userSpaceOnUse">
<stop stop-color="#D9D9D9" stop-opacity="0"/>
<stop offset="0.354167" stop-color="#D9D9D9"/>
<stop offset="0.630208" stop-color="#D9D9D9"/>
<stop offset="1" stop-color="#D9D9D9" stop-opacity="0"/>
</linearGradient>
<linearGradient id="paint1_linear_200_48799" x1="85.5" y1="229" x2="168.804" y2="254.495" gradientUnits="userSpaceOnUse">
<stop stop-color="#5D7DEF"/>
<stop offset="0.791667" stop-color="#5B44E7"/>
</linearGradient>
<clipPath id="clip0_200_48799">
<rect width="16" height="16" fill="white" transform="translate(23 2)"/>
</clipPath>
<clipPath id="clip1_200_48799">
<rect width="16" height="16" fill="white" transform="translate(23 80)"/>
</clipPath>
<clipPath id="clip2_200_48799">
<rect width="16" height="16" fill="white" transform="translate(23 158)"/>
</clipPath>
<clipPath id="clip3_200_48799">
<rect width="16" height="16" fill="white" transform="translate(23 236)"/>
</clipPath>
<clipPath id="clip4_200_48799">
<rect width="16" height="16" fill="white" transform="translate(23 314)"/>
</clipPath>
</defs>
</svg>
