<svg width="64" height="64" viewBox="0 0 64 64" fill="none" xmlns="http://www.w3.org/2000/svg">
<path d="M0 16C0 7.16344 7.16344 0 16 0H48C56.8366 0 64 7.16344 64 16V48C64 56.8366 56.8366 64 48 64H16C7.16344 64 0 56.8366 0 48V16Z" fill="white" fill-opacity="0.15"/>
<path d="M42.3963 22.9032C40.4842 22.0223 38.4337 21.3733 36.2899 21.0016C36.2508 20.9944 36.2118 21.0123 36.1917 21.0482C35.928 21.5191 35.6359 22.1334 35.4314 22.6163C33.1255 22.2697 30.8315 22.2697 28.5729 22.6163C28.3683 22.1227 28.0656 21.5191 27.8007 21.0482C27.7806 21.0135 27.7416 20.9956 27.7026 21.0016C25.5599 21.3721 23.5095 22.0211 21.5962 22.9032C21.5796 22.9103 21.5654 22.9223 21.556 22.9378C17.6667 28.7718 16.6013 34.4623 17.124 40.0823C17.1263 40.1098 17.1417 40.1361 17.163 40.1528C19.729 42.0448 22.2146 43.1935 24.6541 43.9548C24.6931 43.9668 24.7345 43.9524 24.7594 43.9201C25.3364 43.1289 25.8508 42.2947 26.2918 41.4173C26.3179 41.3659 26.293 41.305 26.2398 41.2847C25.4239 40.9739 24.647 40.595 23.8997 40.1647C23.8405 40.1301 23.8358 40.0452 23.8902 40.0046C24.0475 39.8862 24.2048 39.7631 24.3549 39.6388C24.3821 39.6161 24.42 39.6113 24.4519 39.6257C29.3616 41.8763 34.6769 41.8763 39.5287 39.6257C39.5606 39.6101 39.5985 39.6149 39.6268 39.6376C39.7771 39.7619 39.9343 39.8862 40.0928 40.0046C40.1472 40.0452 40.1436 40.1301 40.0845 40.1647C39.3372 40.6034 38.5602 40.9739 37.7431 41.2835C37.6899 41.3038 37.6663 41.3659 37.6923 41.4173C38.1428 42.2934 38.6572 43.1277 39.2236 43.919C39.2473 43.9524 39.2898 43.9668 39.3289 43.9548C41.7802 43.1935 44.2658 42.0448 46.8318 40.1528C46.8543 40.1361 46.8685 40.111 46.8708 40.0835C47.4964 33.5862 45.8231 27.9423 42.4353 22.939C42.427 22.9223 42.4128 22.9103 42.3963 22.9032ZM27.025 36.6603C25.5469 36.6603 24.3289 35.2978 24.3289 33.6244C24.3289 31.9511 25.5233 30.5885 27.025 30.5885C28.5386 30.5885 29.7448 31.963 29.7211 33.6244C29.7211 35.2978 28.5268 36.6603 27.025 36.6603ZM36.9934 36.6603C35.5153 36.6603 34.2974 35.2978 34.2974 33.6244C34.2974 31.9511 35.4917 30.5885 36.9934 30.5885C38.507 30.5885 39.7132 31.963 39.6896 33.6244C39.6896 35.2978 38.507 36.6603 36.9934 36.6603Z" fill="#EEEEEE"/>
</svg>
