<svg width="64" height="64" viewBox="0 0 64 64" fill="none" xmlns="http://www.w3.org/2000/svg">
<path d="M0 16C0 7.16344 7.16344 0 16 0H48C56.8366 0 64 7.16344 64 16V48C64 56.8366 56.8366 64 48 64H16C7.16344 64 0 56.8366 0 48V16Z" fill="white" fill-opacity="0.1"/>
<path d="M27.5 23.5H25.5C24.9696 23.5 24.4609 23.7107 24.0858 24.0858C23.7107 24.4609 23.5 24.9696 23.5 25.5V27.5M27.5 23.5V19.5M27.5 23.5H36.5M36.5 23.5H38.5C39.0304 23.5 39.5391 23.7107 39.9142 24.0858C40.2893 24.4609 40.5 24.9696 40.5 25.5V27.5M36.5 23.5V19.5M27.5 44.5V40.5M36.5 44.5V40.5M40.5 27.5H44.5M40.5 27.5V36.5M40.5 36.5V38.5C40.5 39.0304 40.2893 39.5391 39.9142 39.9142C39.5391 40.2893 39.0304 40.5 38.5 40.5H25.5C24.9696 40.5 24.4609 40.2893 24.0858 39.9142C23.7107 39.5391 23.5 39.0304 23.5 38.5V36.5M40.5 36.5H44.5M23.5 36.5H19.5M23.5 36.5V27.5M23.5 27.5H19.5" stroke="white" stroke-width="1.5" stroke-linecap="round" stroke-linejoin="round"/>
</svg>
