<svg width="58" height="58" viewBox="0 0 58 58" fill="none" xmlns="http://www.w3.org/2000/svg">
<path d="M41.0834 9.66681H14.5C11.8307 9.66681 9.66669 11.8308 9.66669 14.5001V33.8335H36.25V26.5835C36.25 25.2488 37.332 24.1668 38.6667 24.1668H45.9167V14.5001C45.9167 11.8308 43.7527 9.66681 41.0834 9.66681Z" stroke="#8370FB" stroke-width="3.625" stroke-linejoin="round"/>
<path d="M48.3334 24.1668H38.6667C37.332 24.1668 36.25 25.2488 36.25 26.5835V41.0835H50.75V26.5835C50.75 25.2488 49.6681 24.1668 48.3334 24.1668Z" stroke="#8370FB" stroke-width="3.625" stroke-linejoin="round"/>
<path d="M36.25 41.0834H10.875C8.873 41.0834 7.25003 39.4605 7.25003 37.4584C7.25003 35.4564 8.873 33.8334 10.875 33.8334H36.25V41.0834Z" stroke="#8370FB" stroke-width="3.625" stroke-linejoin="round"/>
<path d="M36.25 45.9168V41.0834H50.75V45.9168C50.75 47.2515 49.6681 48.3334 48.3334 48.3334H38.6667C37.332 48.3334 36.25 47.2515 36.25 45.9168Z" stroke="#8370FB" stroke-width="3.625" stroke-linejoin="round"/>
</svg>
