<svg width="292" height="141" viewBox="0 0 292 141" fill="none" xmlns="http://www.w3.org/2000/svg">
<path d="M99.4337 57.248C103.526 57.248 107.018 58.7153 109.912 61.65C112.846 64.5847 114.314 68.098 114.314 72.19V73.802C114.314 77.894 112.846 81.4073 109.912 84.342C107.018 87.2767 103.505 88.744 99.3717 88.744C95.2797 88.744 91.7664 87.2767 88.8317 84.342C85.9384 81.4073 84.4917 77.894 84.4917 73.802V44.848H92.3657V59.046C94.5564 57.8473 96.9124 57.248 99.4337 57.248ZM106.44 73.802V72.19C106.44 70.2473 105.737 68.594 104.332 67.23C102.968 65.8247 101.314 65.122 99.3717 65.122C97.4704 65.122 95.8171 65.8247 94.4117 67.23C93.0477 68.594 92.3657 70.2473 92.3657 72.19V73.802C92.3657 75.7447 93.0477 77.398 94.4117 78.762C95.8171 80.126 97.4704 80.808 99.3717 80.808C101.314 80.808 102.968 80.126 104.332 78.762C105.737 77.398 106.44 75.7447 106.44 73.802ZM140.407 57.992H148.281V73.802C148.281 77.9353 146.813 81.4693 143.879 84.404C140.985 87.2973 137.472 88.744 133.339 88.744C129.247 88.744 125.733 87.2973 122.799 84.404C119.905 81.4693 118.459 77.9353 118.459 73.802V57.992H126.333V73.802C126.333 75.7447 127.015 77.4187 128.379 78.824C129.784 80.188 131.437 80.87 133.339 80.87C135.281 80.87 136.935 80.188 138.299 78.824C139.704 77.4187 140.407 75.7447 140.407 73.802V57.992ZM161.649 88H153.713V57.992H161.649V88ZM157.681 53.032C156.854 53.032 156.089 52.846 155.387 52.474C154.725 52.0607 154.188 51.5233 153.775 50.862C153.403 50.1593 153.217 49.3946 153.217 48.568C153.217 47.328 153.651 46.274 154.519 45.406C155.387 44.538 156.441 44.104 157.681 44.104C158.921 44.104 159.975 44.538 160.843 45.406C161.711 46.274 162.145 47.328 162.145 48.568C162.145 49.808 161.711 50.862 160.843 51.73C159.975 52.598 158.921 53.032 157.681 53.032ZM188.406 44.848H196.28V73.802C196.28 77.894 194.812 81.4073 191.878 84.342C188.984 87.2767 185.471 88.744 181.338 88.744C177.246 88.744 173.732 87.2767 170.798 84.342C167.904 81.4073 166.458 77.894 166.458 73.802V72.19C166.458 68.098 167.904 64.5847 170.798 61.65C173.732 58.7153 177.266 57.248 181.4 57.248C183.88 57.248 186.215 57.8473 188.406 59.046V44.848ZM188.406 73.802V72.19C188.406 70.2473 187.703 68.594 186.298 67.23C184.934 65.8247 183.28 65.122 181.338 65.122C179.436 65.122 177.783 65.8247 176.378 67.23C175.014 68.594 174.332 70.2473 174.332 72.19V73.802C174.332 75.7447 175.014 77.398 176.378 78.762C177.783 80.126 179.436 80.808 181.338 80.808C183.28 80.808 184.934 80.126 186.298 78.762C187.703 77.398 188.406 75.7447 188.406 73.802ZM209.6 88H201.726V44.848H209.6V88Z" fill="white"/>
<path d="M230.655 51.978C228.712 51.978 227.038 52.6806 225.633 54.086C224.269 55.45 223.587 57.1033 223.587 59.046V61.464H230.655V68.036H223.587V88H215.713V59.046C215.713 54.9126 217.159 51.3993 220.053 48.506C222.987 45.5713 226.521 44.104 230.655 44.104H232.763V51.978H230.655ZM255.869 57.992H263.743V90.356C263.619 94.4067 262.111 97.8373 259.217 100.648C256.324 103.5 252.873 104.926 248.863 104.926C244.73 104.926 241.196 103.459 238.261 100.524C235.368 97.5893 233.921 94.076 233.921 89.984H241.795C241.795 91.9267 242.477 93.58 243.841 94.944C245.247 96.3493 246.9 97.052 248.801 97.052C250.744 97.052 252.397 96.3493 253.761 94.944C255.167 93.58 255.869 91.9267 255.869 89.984V86.946C253.679 88.1447 251.343 88.744 248.863 88.744C244.73 88.744 241.196 87.2973 238.261 84.404C235.368 81.4693 233.921 77.9353 233.921 73.802V57.992H241.795V73.802C241.795 75.7447 242.477 77.4187 243.841 78.824C245.247 80.188 246.9 80.87 248.801 80.87C250.744 80.87 252.397 80.188 253.761 78.824C255.167 77.4187 255.869 75.7447 255.869 73.802V57.992Z" fill="url(#paint0_linear_78_275)"/>
<path fill-rule="evenodd" clip-rule="evenodd" d="M290.454 46.3636C290.036 46.3636 289.697 46.0245 289.697 45.6061C289.697 45.1877 290.036 44.8485 290.454 44.8485C290.873 44.8485 291.212 45.1877 291.212 45.6061C291.212 46.0245 290.873 46.3636 290.454 46.3636ZM287.273 45.6061C281.053 46.1174 276.117 51.0535 275.606 57.2727C275.094 51.0535 270.158 46.1174 263.939 45.6061C270.158 45.0947 275.094 40.1586 275.606 33.9394C276.117 40.1586 281.053 45.0947 287.273 45.6061ZM260 45.6061C260 46.0245 260.339 46.3636 260.757 46.3636C261.176 46.3636 261.515 46.0245 261.515 45.6061C261.515 45.1877 261.176 44.8485 260.757 44.8485C260.339 44.8485 260 45.1877 260 45.6061ZM275.606 31.5152C275.187 31.5152 274.848 31.176 274.848 30.7576C274.848 30.3392 275.187 30 275.606 30C276.024 30 276.363 30.3392 276.363 30.7576C276.363 31.176 276.024 31.5152 275.606 31.5152ZM274.849 60.2424C274.849 60.6608 275.188 61 275.607 61C276.025 61 276.364 60.6608 276.364 60.2424C276.364 59.824 276.025 59.4849 275.607 59.4849C275.188 59.4849 274.849 59.824 274.849 60.2424Z" fill="url(#paint1_linear_78_275)"/>
<mask id="mask0_78_275" style="mask-type:alpha" maskUnits="userSpaceOnUse" x="0" y="27" width="57" height="114">
<path d="M54.173 34.0972C54.3746 43.6653 52.9506 51.9207 49.0194 63.9697C47.8337 67.6032 46.9737 70.686 47.1081 70.82C47.4985 71.2104 50.7446 68.798 53.9166 65.76C57.2498 62.5681 57.2209 62.5328 56.1748 68.5119C54.3475 78.9607 49.6213 88.4685 42.8495 95.3218C38.9032 99.3155 35.1939 101.998 30.0253 104.595L25.8244 106.705V101.781C25.8244 92.1425 27.1609 77.3424 29.7185 58.6563C30.4325 53.4429 31.09 48.8383 31.1805 48.4234C31.467 47.1097 31.065 47.6026 30.1257 49.7159C28.6517 53.0336 26.3832 60.9425 25.0049 67.5717C23.107 76.6974 21.5054 88.0135 18.5135 113.439C17.4402 122.558 15.6918 132.179 14.7784 133.99C13.3906 136.742 11.3543 138.379 7.72346 139.66L6.09307 140.235L7.73897 136.715C9.64941 132.629 10.9355 127.886 11.6055 122.456C12.4315 115.76 11.4608 111.164 7.95785 105.189C4.62556 99.5064 3.22051 96.5567 2.00591 92.6944C0.32382 87.3479 -0.430611 79.5988 0.248428 74.646L0.524186 72.6344L3.37218 75.366C6.98927 78.8358 10.5645 81.3485 10.1914 80.1589C10.0501 79.7074 9.35598 77.6776 8.64979 75.6487C6.69239 70.0259 5.9121 65.6807 5.90736 60.3798C5.9009 52.9349 7.45027 47.7254 11.5917 41.2698L13.8434 37.7595H18.7565H23.6701V32.799V27.8385L38.858 27.9518L54.0459 28.0651L54.173 34.0972Z" fill="black"/>
</mask>
<g mask="url(#mask0_78_275)">
<rect width="69.7997" height="91.3428" transform="matrix(-1 0 0 1 49.9795 58.8605)" fill="#D196FF"/>
<rect width="4.28938" height="3.76214" transform="matrix(-0.707107 -0.707107 -0.707107 0.707107 34.9165 27.4245)" fill="#7A69E4"/>
<path d="M33.8584 27.6657L18.4637 12.271L0.868112 29.5618L17.2621 44.2621L33.8584 27.6657Z" fill="#704CD3"/>
<rect width="20.8193" height="20.8224" transform="matrix(-0.707107 -0.707107 -0.707107 0.707107 46.541 44.2835)" fill="#5D35CA"/>
<rect width="20.1953" height="20.8224" transform="matrix(-0.707107 -0.707107 -0.707107 0.707107 60.7471 58.4916)" fill="#8147DF"/>
<path d="M31.8909 58.9325L17.1695 44.211L1.81828 59.6344L16.5591 75.2588L31.8909 58.9325Z" fill="#8147DF"/>
<path d="M46.1009 73.0789L31.8828 58.8605L16.3718 75.2333L31.4518 87.7283L46.1009 73.0789Z" fill="#A262F4"/>
<rect width="22.0069" height="20.8224" transform="matrix(-0.707107 -0.707107 -0.707107 0.707107 76.7012 45.1452)" fill="#5E39C4"/>
<path d="M17.2427 44.2835L0.439055 29.1312L0.439054 61.015L17.2427 44.2835Z" fill="#8A6AE3"/>
<rect width="23.7354" height="20.7212" transform="matrix(-0.707107 -0.707107 -0.707107 0.707107 62.9116 89.8377)" fill="#B97BEC"/>
<path d="M58.5826 32.1601L53.4253 5.43362L31.8538 29.5901L46.5032 44.2395L58.5826 32.1601Z" fill="#4F28BB"/>
<rect width="23.8037" height="22.5055" transform="matrix(-0.707107 -0.707107 -0.707107 0.707107 78.8252 73.969)" fill="#9D6AF1"/>
<path d="M16.8111 75.2507L1.73086 59.3903L11.202 82.1273L16.8111 75.2507Z" fill="#9D6AF1"/>
<path d="M16.4977 75.2564L11.2009 82.1272L18.5256 88.5901L24.1266 81.2655L16.4977 75.2564Z" fill="#B97BEC"/>
</g>
<path fill-rule="evenodd" clip-rule="evenodd" d="M34.5537 16.2652C34.527 16.7986 34.4835 18.8891 34.4572 20.9116L34.4093 24.5886L29.7776 24.4662L25.1458 24.3439L25.0209 20.283C24.9524 18.0494 24.9972 15.9584 25.1208 15.6366C25.2949 15.1824 26.3845 15.0786 29.974 15.1734C34.4671 15.2923 34.6011 15.3242 34.5537 16.2652Z" fill="#8147DF"/>
<path d="M55.1816 22.9435C55.2944 22.0551 55.36 18.7103 55.3268 15.5112L55.2669 9.69453L47.8539 9.57647L40.4409 9.45885V17.0088V24.5593H47.7087H54.9769L55.1816 22.9435Z" fill="#4F28BB"/>
<path d="M65 9.47897V4.73948V0H60.2605H55.521V4.73948V9.47897H60.2605H65Z" fill="#7149DE"/>
<defs>
<linearGradient id="paint0_linear_78_275" x1="-18.5202" y1="37.199" x2="-22.5115" y2="154.949" gradientUnits="userSpaceOnUse">
<stop stop-color="#DF78F9"/>
<stop offset="0.25" stop-color="#865FF2"/>
</linearGradient>
<linearGradient id="paint1_linear_78_275" x1="273" y1="34" x2="278.397" y2="50.7264" gradientUnits="userSpaceOnUse">
<stop offset="0.466888" stop-color="#DF78F9"/>
<stop offset="1" stop-color="#865FF2"/>
</linearGradient>
</defs>
</svg>
