<svg width="290" height="141" viewBox="0 0 290 141" fill="none" xmlns="http://www.w3.org/2000/svg">
<path d="M99.4337 55.248C103.526 55.248 107.018 56.7153 109.912 59.65C112.846 62.5847 114.314 66.098 114.314 70.19V71.802C114.314 75.894 112.846 79.4073 109.912 82.342C107.018 85.2767 103.505 86.744 99.3717 86.744C95.2797 86.744 91.7664 85.2767 88.8317 82.342C85.9384 79.4073 84.4917 75.894 84.4917 71.802V42.848H92.3657V57.046C94.5564 55.8473 96.9124 55.248 99.4337 55.248ZM106.44 71.802V70.19C106.44 68.2473 105.737 66.594 104.332 65.23C102.968 63.8247 101.314 63.122 99.3717 63.122C97.4704 63.122 95.8171 63.8247 94.4117 65.23C93.0477 66.594 92.3657 68.2473 92.3657 70.19V71.802C92.3657 73.7447 93.0477 75.398 94.4117 76.762C95.8171 78.126 97.4704 78.808 99.3717 78.808C101.314 78.808 102.968 78.126 104.332 76.762C105.737 75.398 106.44 73.7447 106.44 71.802ZM140.407 55.992H148.281V71.802C148.281 75.9353 146.813 79.4693 143.879 82.404C140.985 85.2973 137.472 86.744 133.339 86.744C129.247 86.744 125.733 85.2973 122.799 82.404C119.905 79.4693 118.459 75.9353 118.459 71.802V55.992H126.333V71.802C126.333 73.7447 127.015 75.4187 128.379 76.824C129.784 78.188 131.437 78.87 133.339 78.87C135.281 78.87 136.935 78.188 138.299 76.824C139.704 75.4187 140.407 73.7447 140.407 71.802V55.992ZM161.649 86H153.713V55.992H161.649V86ZM157.681 51.032C156.854 51.032 156.089 50.846 155.387 50.474C154.725 50.0607 154.188 49.5233 153.775 48.862C153.403 48.1593 153.217 47.3946 153.217 46.568C153.217 45.328 153.651 44.274 154.519 43.406C155.387 42.538 156.441 42.104 157.681 42.104C158.921 42.104 159.975 42.538 160.843 43.406C161.711 44.274 162.145 45.328 162.145 46.568C162.145 47.808 161.711 48.862 160.843 49.73C159.975 50.598 158.921 51.032 157.681 51.032ZM188.406 42.848H196.28V71.802C196.28 75.894 194.812 79.4073 191.878 82.342C188.984 85.2767 185.471 86.744 181.338 86.744C177.246 86.744 173.732 85.2767 170.798 82.342C167.904 79.4073 166.458 75.894 166.458 71.802V70.19C166.458 66.098 167.904 62.5847 170.798 59.65C173.732 56.7153 177.266 55.248 181.4 55.248C183.88 55.248 186.215 55.8473 188.406 57.046V42.848ZM188.406 71.802V70.19C188.406 68.2473 187.703 66.594 186.298 65.23C184.934 63.8247 183.28 63.122 181.338 63.122C179.436 63.122 177.783 63.8247 176.378 65.23C175.014 66.594 174.332 68.2473 174.332 70.19V71.802C174.332 73.7447 175.014 75.398 176.378 76.762C177.783 78.126 179.436 78.808 181.338 78.808C183.28 78.808 184.934 78.126 186.298 76.762C187.703 75.398 188.406 73.7447 188.406 71.802ZM209.6 86H201.726V42.848H209.6V86Z" fill="#433862"/>
<path d="M230.655 49.978C228.712 49.978 227.038 50.6806 225.633 52.086C224.269 53.45 223.587 55.1033 223.587 57.046V59.464H230.655V66.036H223.587V86H215.713V57.046C215.713 52.9126 217.159 49.3993 220.053 46.506C222.987 43.5713 226.521 42.104 230.655 42.104H232.763V49.978H230.655ZM255.869 55.992H263.743V88.356C263.619 92.4067 262.111 95.8373 259.217 98.648C256.324 101.5 252.873 102.926 248.863 102.926C244.73 102.926 241.196 101.459 238.261 98.524C235.368 95.5893 233.921 92.076 233.921 87.984H241.795C241.795 89.9267 242.477 91.58 243.841 92.944C245.247 94.3493 246.9 95.052 248.801 95.052C250.744 95.052 252.397 94.3493 253.761 92.944C255.167 91.58 255.869 89.9267 255.869 87.984V84.946C253.679 86.1447 251.343 86.744 248.863 86.744C244.73 86.744 241.196 85.2973 238.261 82.404C235.368 79.4693 233.921 75.9353 233.921 71.802V55.992H241.795V71.802C241.795 73.7447 242.477 75.4187 243.841 76.824C245.247 78.188 246.9 78.87 248.801 78.87C250.744 78.87 252.397 78.188 253.761 76.824C255.167 75.4187 255.869 73.7447 255.869 71.802V55.992Z" fill="url(#paint0_linear_77_166)"/>
<path fill-rule="evenodd" clip-rule="evenodd" d="M288.454 47.3636C288.036 47.3636 287.697 47.0245 287.697 46.6061C287.697 46.1877 288.036 45.8485 288.454 45.8485C288.873 45.8485 289.212 46.1877 289.212 46.6061C289.212 47.0245 288.873 47.3636 288.454 47.3636ZM285.273 46.6061C279.053 47.1174 274.117 52.0535 273.606 58.2727C273.094 52.0535 268.158 47.1174 261.939 46.6061C268.158 46.0947 273.094 41.1586 273.606 34.9394C274.117 41.1586 279.053 46.0947 285.273 46.6061ZM258 46.6061C258 47.0245 258.339 47.3636 258.757 47.3636C259.176 47.3636 259.515 47.0245 259.515 46.6061C259.515 46.1877 259.176 45.8485 258.757 45.8485C258.339 45.8485 258 46.1877 258 46.6061ZM273.606 32.5152C273.187 32.5152 272.848 32.176 272.848 31.7576C272.848 31.3392 273.187 31 273.606 31C274.024 31 274.363 31.3392 274.363 31.7576C274.363 32.176 274.024 32.5152 273.606 32.5152ZM272.849 61.2424C272.849 61.6608 273.188 62 273.607 62C274.025 62 274.364 61.6608 274.364 61.2424C274.364 60.824 274.025 60.4849 273.607 60.4849C273.188 60.4849 272.849 60.824 272.849 61.2424Z" fill="url(#paint1_linear_77_166)"/>
<mask id="mask0_77_166" style="mask-type:alpha" maskUnits="userSpaceOnUse" x="0" y="27" width="57" height="114">
<path d="M54.173 34.0972C54.3746 43.6653 52.9506 51.9207 49.0194 63.9697C47.8337 67.6032 46.9737 70.686 47.1081 70.82C47.4985 71.2104 50.7446 68.798 53.9166 65.76C57.2498 62.5681 57.2209 62.5328 56.1748 68.5119C54.3475 78.9607 49.6213 88.4685 42.8495 95.3218C38.9032 99.3155 35.1939 101.998 30.0253 104.595L25.8244 106.705V101.781C25.8244 92.1425 27.1609 77.3424 29.7185 58.6563C30.4325 53.4429 31.09 48.8383 31.1805 48.4234C31.467 47.1097 31.065 47.6026 30.1257 49.7159C28.6517 53.0336 26.3832 60.9425 25.0049 67.5717C23.107 76.6974 21.5054 88.0135 18.5135 113.439C17.4402 122.558 15.6918 132.179 14.7784 133.99C13.3906 136.742 11.3543 138.379 7.72346 139.66L6.09307 140.235L7.73897 136.715C9.64941 132.629 10.9355 127.886 11.6055 122.456C12.4315 115.76 11.4608 111.164 7.95785 105.189C4.62556 99.5064 3.22051 96.5567 2.00591 92.6944C0.32382 87.3479 -0.430611 79.5988 0.248428 74.646L0.524186 72.6344L3.37218 75.366C6.98927 78.8358 10.5645 81.3485 10.1914 80.1589C10.0501 79.7074 9.35598 77.6776 8.64979 75.6487C6.69239 70.0259 5.9121 65.6807 5.90736 60.3798C5.9009 52.9349 7.45027 47.7254 11.5917 41.2698L13.8434 37.7595H18.7565H23.6701V32.799V27.8385L38.858 27.9518L54.0459 28.0651L54.173 34.0972Z" fill="black"/>
</mask>
<g mask="url(#mask0_77_166)">
<rect width="69.7997" height="91.3428" transform="matrix(-1 0 0 1 49.9795 58.8605)" fill="#D196FF"/>
<rect width="4.28938" height="3.76214" transform="matrix(-0.707107 -0.707107 -0.707107 0.707107 34.9165 27.4245)" fill="#7A69E4"/>
<path d="M33.8584 27.6657L18.4637 12.271L0.868112 29.5618L17.2621 44.2621L33.8584 27.6657Z" fill="#704CD3"/>
<rect width="20.8193" height="20.8224" transform="matrix(-0.707107 -0.707107 -0.707107 0.707107 46.541 44.2835)" fill="#5D35CA"/>
<rect width="20.1953" height="20.8224" transform="matrix(-0.707107 -0.707107 -0.707107 0.707107 60.7471 58.4916)" fill="#8147DF"/>
<path d="M31.8907 58.9325L17.1692 44.211L1.81803 59.6344L16.5588 75.2588L31.8907 58.9325Z" fill="#8147DF"/>
<path d="M46.1009 73.0789L31.8828 58.8605L16.3718 75.2333L31.4518 87.7283L46.1009 73.0789Z" fill="#A262F4"/>
<rect width="22.0069" height="20.8224" transform="matrix(-0.707107 -0.707107 -0.707107 0.707107 76.7009 45.1452)" fill="#5E39C4"/>
<path d="M17.2424 44.2835L0.438811 29.1312L0.43881 61.015L17.2424 44.2835Z" fill="#8A6AE3"/>
<rect width="23.7354" height="20.7212" transform="matrix(-0.707107 -0.707107 -0.707107 0.707107 62.9116 89.8377)" fill="#B97BEC"/>
<path d="M58.5826 32.1601L53.4253 5.43362L31.8538 29.5901L46.5032 44.2395L58.5826 32.1601Z" fill="#4F28BB"/>
<rect width="23.8037" height="22.5055" transform="matrix(-0.707107 -0.707107 -0.707107 0.707107 78.8252 73.969)" fill="#9D6AF1"/>
<path d="M16.8111 75.2507L1.73086 59.3903L11.202 82.1273L16.8111 75.2507Z" fill="#9D6AF1"/>
<path d="M16.4974 75.2564L11.2007 82.1272L18.5253 88.5901L24.1264 81.2655L16.4974 75.2564Z" fill="#B97BEC"/>
</g>
<path fill-rule="evenodd" clip-rule="evenodd" d="M34.5534 16.2652C34.5267 16.7986 34.4832 18.8891 34.4569 20.9116L34.4091 24.5886L29.7773 24.4662L25.1456 24.3439L25.0206 20.283C24.9521 18.0494 24.9969 15.9584 25.1206 15.6366C25.2946 15.1824 26.3843 15.0786 29.9738 15.1734C34.4668 15.2923 34.6008 15.3242 34.5534 16.2652Z" fill="#8147DF"/>
<path d="M55.1816 22.9435C55.2944 22.0551 55.36 18.7103 55.3268 15.5112L55.2669 9.69453L47.8539 9.57647L40.4409 9.45885V17.0088V24.5593H47.7087H54.9769L55.1816 22.9435Z" fill="#4F28BB"/>
<path d="M65 9.47897V4.73948V0H60.2605H55.521V4.73948V9.47897H60.2605H65Z" fill="#7149DE"/>
<defs>
<linearGradient id="paint0_linear_77_166" x1="-18.5202" y1="35.199" x2="-22.5115" y2="152.949" gradientUnits="userSpaceOnUse">
<stop stop-color="#DF78F9"/>
<stop offset="0.25" stop-color="#865FF2"/>
</linearGradient>
<linearGradient id="paint1_linear_77_166" x1="271" y1="35" x2="276.397" y2="51.7264" gradientUnits="userSpaceOnUse">
<stop offset="0.466888" stop-color="#DF78F9"/>
<stop offset="1" stop-color="#865FF2"/>
</linearGradient>
</defs>
</svg>
