<svg width="52" height="48" viewBox="0 0 52 48" fill="none" xmlns="http://www.w3.org/2000/svg">
<rect width="52" height="47.4103" rx="16" fill="#929BFF" fill-opacity="0.2"/>
<rect width="52" height="47.4103" rx="16" fill="url(#paint0_linear_200_48791)" fill-opacity="0.46"/>
<path d="M31.3263 19.4106C30.358 17.3474 28.2947 16 26 16C23.7053 16 21.6421 17.3474 20.6737 19.4105C18.0842 19.5158 16 21.6632 16 24.2947C16 26.9894 18.1894 29.2 20.9053 29.2H23.7053V27.6632H20.9053C19.0526 27.6632 17.5368 26.1474 17.5368 24.2947C17.5368 22.442 19.0526 20.9262 20.9053 20.9262C21.4737 20.9262 22.042 21.0736 22.5474 21.3472L23.2211 21.7261L23.958 20.3787L23.2632 20.021C22.9474 19.8525 22.6315 19.7262 22.2947 19.6209C23.0736 18.3577 24.4631 17.5578 25.9789 17.5578C27.4947 17.5578 28.8842 18.3578 29.6631 19.6209C29.3474 19.7262 29.0315 19.8525 28.7367 19.9998L28.063 20.3577L28.7999 21.705L29.4736 21.3472C29.9578 21.0734 30.5263 20.9471 31.0736 20.9471C32.9263 20.9471 34.4421 22.4629 34.4421 24.3156C34.4421 26.1683 32.9263 27.6841 31.0736 27.6841H28.2947V29.2209H31.0947C33.7895 29.2209 36 27.0315 36 24.3157C36 21.6631 33.9158 19.5157 31.3263 19.4104V19.4106Z" fill="white"/>
<path d="M29.0102 25.8735L25.9997 21.1577L22.9893 25.8735H25.2418V31.4103H26.7576V25.8735H29.0102Z" fill="white"/>
<defs>
<linearGradient id="paint0_linear_200_48791" x1="15.8438" y1="-8.51903" x2="24.3244" y2="47.6632" gradientUnits="userSpaceOnUse">
<stop stop-color="#929BFF"/>
<stop offset="1" stop-color="#929BFF" stop-opacity="0"/>
</linearGradient>
</defs>
</svg>
