<svg width="24" height="24" viewBox="0 0 24 24" fill="none" xmlns="http://www.w3.org/2000/svg">
<rect width="24" height="24" rx="12" fill="#559DF1" fill-opacity="0.12"/>
<path d="M5.99734 9.75C5.99805 9.55108 6.07774 9.3606 6.21889 9.22045C6.36004 9.08029 6.55108 9.00195 6.75 9.00266L17.2499 9.03984C17.4488 9.04054 17.6393 9.12023 17.7795 9.26138C17.9196 9.40253 17.998 9.59358 17.9973 9.79249C17.9966 9.9914 17.9169 10.1819 17.7757 10.322C17.6346 10.4622 17.4435 10.5405 17.2446 10.5398L6.74468 10.5026C6.54577 10.5019 6.35529 10.4222 6.21513 10.2811C6.07498 10.14 5.99664 9.94891 5.99734 9.75Z" fill="white"/>
<path d="M6.73388 13.5027C6.53497 13.502 6.34393 13.5803 6.20278 13.7204C6.06163 13.8606 5.98194 14.0511 5.98123 14.25C5.98053 14.4489 6.05887 14.64 6.19902 14.7811C6.33917 14.9222 6.52966 15.0019 6.72857 15.0026L12.7285 15.0239C12.9274 15.0246 13.1185 14.9463 13.2596 14.8061C13.4008 14.6659 13.4805 14.4755 13.4812 14.2766C13.4819 14.0776 13.4035 13.8866 13.2634 13.7454C13.1232 13.6043 12.9328 13.5246 12.7338 13.5239L6.73388 13.5027Z" fill="white"/>
</svg>
