<svg width="21" height="16" viewBox="0 0 21 16" fill="none" xmlns="http://www.w3.org/2000/svg">
<path fill-rule="evenodd" clip-rule="evenodd" d="M12.8381 1.16326C11.2707 0.804081 9.02857 1.0136 8.1034 1.16326C7.97415 0.897959 7.68299 0.293878 7.55238 0C7.00136 0 4.1034 0.836735 3.26667 1.34694C2.38912 2.22449 0.858504 5.7551 0.491157 7.36735C0.12381 8.97959 -0.161904 12.0204 0.103402 13.2857C1.52381 14.5102 4.24626 15.6054 5.42993 16L6.51157 14.1837L4.79728 13.2857C4.8585 13.2381 5.02177 13.1061 5.18503 12.9592C6.26667 13.4694 7.81769 14 10.4912 14.102C12.6299 14.1837 14.8925 13.3741 15.7565 12.9592L16.185 13.3061L14.4503 14.1837C14.7497 14.6871 15.3973 15.751 15.5932 15.9796C17.6136 15.4694 20.2871 13.6939 20.8585 13.3061C21.1017 10.1442 20.7612 8.69338 20.2967 6.71445L20.2871 6.67347C19.8177 4.67347 18.2871 2.10204 17.7565 1.34694C16.7279 0.808163 14.4299 0.22449 13.4095 0C13.3007 0.22449 13.034 0.771428 12.8381 1.16326ZM8.8585 8.77551C8.8585 9.94771 8.02703 10.898 7.00135 10.898C5.97568 10.898 5.14421 9.94771 5.14421 8.77551C5.14421 7.60332 5.97568 6.65306 7.00135 6.65306C8.02703 6.65306 8.8585 7.60332 8.8585 8.77551ZM13.9401 10.898C14.9658 10.898 15.7973 9.94771 15.7973 8.77551C15.7973 7.60332 14.9658 6.65306 13.9401 6.65306C12.9145 6.65306 12.083 7.60332 12.083 8.77551C12.083 9.94771 12.9145 10.898 13.9401 10.898Z" fill="#02174D"/>
</svg>
