<svg width="32" height="32" viewBox="0 0 32 32" fill="none" xmlns="http://www.w3.org/2000/svg">
<rect width="32" height="32" rx="8" fill="#D3404E"/>
<rect width="32" height="32" rx="8" fill="url(#paint0_linear_100_306)" fill-opacity="0.2"/>
<path d="M22.058 8H9.93994C9.38766 8 8.93994 8.44772 8.93994 9V16.412C8.93994 16.9643 9.38766 17.412 9.93994 17.412H18.2932C18.8454 17.412 19.2932 16.9643 19.2932 16.412V14.6472C19.2932 14.0949 19.7409 13.6472 20.2932 13.6472H22.058C22.6103 13.6472 23.058 13.1995 23.058 12.6472V9C23.058 8.44772 22.6103 8 22.058 8Z" stroke="white" stroke-width="1.25" stroke-linejoin="round"/>
<path d="M23.9412 13.6465H20.2939C19.7417 13.6465 19.2939 14.0942 19.2939 14.6465V19.2349C19.2939 19.7872 19.7417 20.2349 20.2939 20.2349H23.9412C24.4934 20.2349 24.9412 19.7872 24.9412 19.2349V14.6465C24.9412 14.0942 24.4934 13.6465 23.9412 13.6465Z" stroke="white" stroke-width="1.25" stroke-linejoin="round"/>
<path d="M8 19.2357V18.4121C8 17.8598 8.44771 17.4121 9 17.4121H18.2944C18.8467 17.4121 19.2944 17.8598 19.2944 18.4121V19.2357C19.2944 19.788 18.8467 20.2357 18.2944 20.2357H9C8.44772 20.2357 8 19.788 8 19.2357Z" stroke="white" stroke-width="1.25" stroke-linejoin="round"/>
<path d="M19.2939 22.059V21.2354C19.2939 20.6831 19.7417 20.2354 20.2939 20.2354H23.9412C24.4934 20.2354 24.9412 20.6831 24.9412 21.2354V22.059C24.9412 22.6112 24.4934 23.059 23.9412 23.059H20.2939C19.7417 23.059 19.2939 22.6112 19.2939 22.059Z" stroke="white" stroke-width="1.25" stroke-linejoin="round"/>
<defs>
<linearGradient id="paint0_linear_100_306" x1="16" y1="0" x2="16" y2="32" gradientUnits="userSpaceOnUse">
<stop stop-color="white"/>
<stop offset="1" stop-color="white" stop-opacity="0"/>
</linearGradient>
</defs>
</svg>
