<svg width="30" height="30" viewBox="0 0 30 30" fill="none" xmlns="http://www.w3.org/2000/svg">
<path d="M0 8C0 3.58172 3.58172 0 8 0H22C26.4183 0 30 3.58172 30 8V22C30 26.4183 26.4183 30 22 30H8C3.58172 30 0 26.4183 0 22V8Z" fill="#D3404E"/>
<path d="M0 8C0 3.58172 3.58172 0 8 0H22C26.4183 0 30 3.58172 30 8V22C30 26.4183 26.4183 30 22 30H8C3.58172 30 0 26.4183 0 22V8Z" fill="url(#paint0_linear_100_239)" fill-opacity="0.2"/>
<path d="M14.798 8.75806L15.5426 8.66817V8.66817L14.798 8.75806ZM15.4973 14.5506L14.7527 14.6405C14.7813 14.8772 14.9208 15.0863 15.1285 15.2036C15.3362 15.3209 15.5873 15.3324 15.8048 15.2346L15.4973 14.5506ZM16.7965 13.9667L17.1039 14.6507L16.7965 13.9667ZM18.7869 14.006L19.1309 13.3395V13.3395L18.7869 14.006ZM20.782 15.0356L20.438 15.7021L20.782 15.0356ZM21.9978 17.1836L21.2485 17.1519V17.1519L21.9978 17.1836ZM21.8285 21.1903L22.5778 21.222L21.8285 21.1903ZM19.3902 23.5728L19.388 24.3228L19.3902 23.5728ZM14.0076 23.5575L14.0098 22.8075H14.0098L14.0076 23.5575ZM12.2484 22.6928L11.6545 23.1508L11.6545 23.1508L12.2484 22.6928ZM9.16329 18.6924L9.75719 18.2344L9.16329 18.6924ZM10.0125 17.4142L10.2097 16.6906L10.0125 17.4142ZM12.9904 18.2256L12.7932 18.9492C13.025 19.0124 13.273 18.9607 13.4602 18.8102C13.6474 18.6598 13.7513 18.4287 13.7395 18.1888L12.9904 18.2256ZM12.5397 9.04982L13.2888 9.01302L12.5397 9.04982ZM13.7213 7.78711L13.7234 7.03712L13.7213 7.78711ZM14.0534 8.84795L14.7527 14.6405L16.2419 14.4607L15.5426 8.66817L14.0534 8.84795ZM15.8048 15.2346L17.1039 14.6507L16.489 13.2826L15.1899 13.8665L15.8048 15.2346ZM18.443 14.6724L20.438 15.7021L21.1259 14.3692L19.1309 13.3395L18.443 14.6724ZM21.2485 17.1519L21.0791 21.1586L22.5778 21.222L22.7471 17.2153L21.2485 17.1519ZM19.3923 22.8228L14.0098 22.8075L14.0055 24.3075L19.388 24.3228L19.3923 22.8228ZM12.8423 22.2347L9.75719 18.2344L8.56939 19.1504L11.6545 23.1508L12.8423 22.2347ZM9.81537 18.1378L12.7932 18.9492L13.1876 17.502L10.2097 16.6906L9.81537 18.1378ZM13.7395 18.1888L13.2888 9.01302L11.7906 9.08661L12.2413 18.2624L13.7395 18.1888ZM9.75719 18.2344C9.75386 18.2301 9.75215 18.2271 9.75136 18.2256C9.75056 18.2241 9.75032 18.2234 9.75028 18.2233C9.75024 18.2231 9.7502 18.223 9.75015 18.2227C9.7501 18.2224 9.74999 18.2215 9.75 18.2199C9.75007 18.2124 9.7533 18.1933 9.76831 18.1707C9.78334 18.148 9.79916 18.1385 9.80441 18.1363C9.80622 18.1355 9.80608 18.1358 9.80492 18.1359C9.80336 18.136 9.80623 18.1353 9.81537 18.1378L10.2097 16.6906C8.78041 16.3011 7.67706 17.9933 8.56939 19.1504L9.75719 18.2344ZM14.0098 22.8075C13.5462 22.8062 13.1208 22.5959 12.8423 22.2347L11.6545 23.1508C12.2181 23.8816 13.0817 24.3049 14.0055 24.3075L14.0098 22.8075ZM20.438 15.7021C20.9498 15.9662 21.2752 16.5197 21.2485 17.1519L22.7471 17.2153C22.7974 16.0257 22.1797 14.913 21.1259 14.3692L20.438 15.7021ZM17.1039 14.6507C17.5509 14.4499 18.0407 14.4648 18.443 14.6724L19.1309 13.3395C18.3081 12.9148 17.3381 12.901 16.489 13.2826L17.1039 14.6507ZM13.7192 8.53711C13.885 8.53758 14.0302 8.65577 14.0534 8.84795L15.5426 8.66817C15.4309 7.74291 14.6653 7.03979 13.7234 7.03712L13.7192 8.53711ZM21.0791 21.1586C21.0397 22.091 20.2653 22.8253 19.3923 22.8228L19.388 24.3228C21.0968 24.3277 22.5057 22.9285 22.5778 21.222L21.0791 21.1586ZM13.7234 7.03712C12.612 7.03397 11.7368 7.99284 11.7906 9.08661L13.2888 9.01302C13.2757 8.74797 13.4958 8.53648 13.7192 8.53711L13.7234 7.03712Z" fill="white"/>
<path d="M10.393 10.5139C10.0972 9.98075 9.92871 9.36719 9.92871 8.71429C9.92871 6.66294 11.5917 5 13.643 5C15.6943 5 17.3573 6.66294 17.3573 8.71429C17.3573 9.36719 17.1888 9.98075 16.893 10.5139" stroke="white" stroke-width="1.5" stroke-linecap="round"/>
<defs>
<linearGradient id="paint0_linear_100_239" x1="15" y1="0" x2="15" y2="30" gradientUnits="userSpaceOnUse">
<stop stop-color="white"/>
<stop offset="1" stop-color="white" stop-opacity="0"/>
</linearGradient>
</defs>
</svg>
