<svg width="24" height="25" viewBox="0 0 24 25" fill="none" xmlns="http://www.w3.org/2000/svg">
<path d="M9 14.2497L14.142 7.05371C14.3528 6.81118 14.6112 6.61462 14.9013 6.47626C15.1913 6.3379 15.5067 6.26071 15.8278 6.24948C16.149 6.23825 16.469 6.29323 16.768 6.41099C17.0669 6.52875 17.3385 6.70678 17.5657 6.934C17.7929 7.16122 17.971 7.43277 18.0887 7.73175C18.2065 8.03073 18.2615 8.35074 18.2502 8.67188C18.239 8.99302 18.1618 9.30842 18.0235 9.59844C17.8851 9.88847 17.6885 10.1469 17.446 10.3577L11.25 16.4997M5.75 18.7497C5.75 18.7497 6.56 17.4427 6.75 16.4997C6.788 16.3097 6.81 16.0947 6.82 15.8737C6.86 15.0107 7.513 14.2497 8.378 14.2497H9C9.59674 14.2497 10.169 14.4868 10.591 14.9087C11.0129 15.3307 11.25 15.903 11.25 16.4997V16.4997C11.25 17.0964 11.0129 17.6687 10.591 18.0907C10.169 18.5127 9.59674 18.7497 9 18.7497H5.75Z" stroke="white" stroke-width="1.5" stroke-linecap="round" stroke-linejoin="round"/>
</svg>
