<svg width="30" height="30" viewBox="0 0 30 30" fill="none" xmlns="http://www.w3.org/2000/svg">
<path d="M0 8C0 3.58172 3.58172 0 8 0H22C26.4183 0 30 3.58172 30 8V22C30 26.4183 26.4183 30 22 30H8C3.58172 30 0 26.4183 0 22V8Z" fill="#CA3554"/>
<path d="M0 8C0 3.58172 3.58172 0 8 0H22C26.4183 0 30 3.58172 30 8V22C30 26.4183 26.4183 30 22 30H8C3.58172 30 0 26.4183 0 22V8Z" fill="url(#paint0_linear_103_325)"/>
<path d="M15.0002 23.9587C13.5085 23.9587 12.2918 22.742 12.2918 21.2503V20.6253H8.75016C8.1335 20.6253 7.5585 20.3837 7.12516 19.942C6.70016 19.5253 6.4585 18.9503 6.4585 18.3337C6.4585 17.167 7.36683 16.167 8.5335 16.0503C8.57516 16.042 8.6585 16.042 8.75016 16.042H21.2502C21.3418 16.042 21.4252 16.042 21.5085 16.0587C22.0002 16.1003 22.4918 16.3337 22.8752 16.7253C23.3502 17.1837 23.5918 17.8503 23.5335 18.5337C23.4335 19.7087 22.3918 20.6253 21.1585 20.6253H17.7085V21.2503C17.7085 22.742 16.4918 23.9587 15.0002 23.9587ZM8.75016 17.292C8.7335 17.292 8.66683 17.292 8.65016 17.3003C8.12516 17.3503 7.7085 17.8087 7.7085 18.3337C7.7085 18.6087 7.81683 18.867 8.0085 19.0587C8.2085 19.267 8.46683 19.3753 8.75016 19.3753H12.9168C13.2585 19.3753 13.5418 19.6587 13.5418 20.0003V21.2503C13.5418 22.0503 14.2002 22.7087 15.0002 22.7087C15.8002 22.7087 16.4585 22.0503 16.4585 21.2503V20.0003C16.4585 19.6587 16.7418 19.3753 17.0835 19.3753H21.1585C21.7335 19.3753 22.2418 18.9503 22.2918 18.4253C22.3168 18.1087 22.2085 17.817 21.9918 17.6003C21.8085 17.417 21.5918 17.3087 21.3585 17.292L21.2502 17.2837H8.75016V17.292Z" fill="white"/>
<path d="M21.4082 17.3003C21.3749 17.3003 21.3415 17.3003 21.3082 17.292H8.74987C8.57487 17.3253 8.36654 17.2753 8.2332 17.1587C8.09154 17.0503 7.9832 16.8837 7.97487 16.7087L7.56654 9.45033C7.4832 8.60033 7.76654 7.72533 8.3582 7.06699C8.94987 6.41699 9.79154 6.04199 10.6749 6.04199H19.3249C20.2082 6.04199 21.0499 6.41699 21.6415 7.07533C22.2249 7.72533 22.5165 8.60033 22.4332 9.46699L22.0332 16.7087C22.0249 16.8837 21.9415 17.0503 21.7999 17.1587C21.6915 17.2503 21.5499 17.3003 21.4082 17.3003ZM9.1832 16.042H20.8165L21.1832 9.38366C21.1832 9.37533 21.1832 9.36699 21.1832 9.35033C21.2332 8.81699 21.0665 8.30033 20.7082 7.90866C20.3499 7.51699 19.8499 7.29199 19.3165 7.29199H10.6749C10.1499 7.29199 9.64154 7.51699 9.2832 7.90866C8.92487 8.30866 8.7582 8.81699 8.81654 9.35033L9.1832 16.042Z" fill="white"/>
<path d="M11.6582 11.4587C11.3165 11.4587 11.0332 11.1753 11.0332 10.8337V6.66699C11.0332 6.32533 11.3165 6.04199 11.6582 6.04199C11.9999 6.04199 12.2832 6.32533 12.2832 6.66699V10.8337C12.2832 11.1753 11.9999 11.4587 11.6582 11.4587Z" fill="white"/>
<path d="M15 8.95866C14.6583 8.95866 14.375 8.67533 14.375 8.33366V6.66699C14.375 6.32533 14.6583 6.04199 15 6.04199C15.3417 6.04199 15.625 6.32533 15.625 6.66699V8.33366C15.625 8.67533 15.3417 8.95866 15 8.95866Z" fill="white"/>
<defs>
<linearGradient id="paint0_linear_103_325" x1="2" y1="-1" x2="37.5" y2="37.5" gradientUnits="userSpaceOnUse">
<stop stop-color="#8022D3"/>
<stop offset="1" stop-color="#9E5ADB" stop-opacity="0"/>
</linearGradient>
</defs>
</svg>
