<svg width="15" height="15" viewBox="0 0 15 15" fill="none" xmlns="http://www.w3.org/2000/svg">
<path d="M4 9.24971L9.142 2.05371C9.35279 1.81118 9.61124 1.61462 9.90127 1.47626C10.1913 1.3379 10.5067 1.26071 10.8278 1.24948C11.149 1.23825 11.469 1.29323 11.768 1.41099C12.0669 1.52875 12.3385 1.70678 12.5657 1.934C12.7929 2.16122 12.971 2.43277 13.0887 2.73175C13.2065 3.03073 13.2615 3.35074 13.2502 3.67188C13.239 3.99302 13.1618 4.30842 13.0235 4.59844C12.8851 4.88847 12.6885 5.14692 12.446 5.35771L6.25 11.4997M0.75 13.7497C0.75 13.7497 1.56 12.4427 1.75 11.4997C1.788 11.3097 1.81 11.0947 1.82 10.8737C1.86 10.0107 2.513 9.24971 3.378 9.24971H4C4.59674 9.24971 5.16903 9.48676 5.59099 9.90872C6.01295 10.3307 6.25 10.903 6.25 11.4997V11.4997C6.25 12.0964 6.01295 12.6687 5.59099 13.0907C5.16903 13.5127 4.59674 13.7497 4 13.7497H0.75Z" stroke="white" stroke-width="1.5" stroke-linecap="round" stroke-linejoin="round"/>
</svg>
